<svg width="1554" height="1286" viewBox="0 0 1554 1286" fill="none" xmlns="http://www.w3.org/2000/svg">
<path d="M1488 185.706C1508.23 178.298 1528.96 173.953 1549.69 169.964V3.56909H3.55273V84.7009C15.5195 89.972 27.415 95.3143 39.8092 98.306C41.3763 98.6622 41.3763 102.295 39.8092 102.651C27.4863 105.5 15.5907 111.555 3.55273 115.9V589.656C25.2781 592.505 47.4309 591.793 68.0166 602.691C69.37 603.403 69.7973 606.537 68.0166 607.036C46.7186 612.806 25.2781 625.485 3.55273 632.893V924.512C24.8507 924.796 46.22 925.366 67.5892 925.366C69.3699 925.366 69.9398 929.355 68.0166 929.783C45.8638 934.341 24.637 943.673 3.55273 953.503V1282.37H1549.62V1068.97C1535.23 1067.33 1520.84 1064.55 1506.59 1062.13C1504.95 1061.84 1504.17 1058.14 1506.17 1057.71C1520.48 1054.94 1535.51 1052.58 1549.62 1047.1V750.21C1532.52 747.859 1515.5 744.013 1498.33 743.799C1496.48 743.799 1496.05 739.953 1497.9 739.383C1515.21 733.898 1532.66 728.983 1549.62 722.003V201.306C1528.75 200.665 1507.95 198.243 1487.93 189.98C1486.36 189.339 1486.29 186.276 1487.93 185.706H1488Z" fill="#F9E9D0"/>
<path d="M1549.63 1286H3.56154C1.56708 1286 0 1284.43 0 1282.44V953.566C0 952.213 0.783538 950.931 2.06569 950.361C20.0871 941.956 37.8948 934.049 56.486 928.992C46.7986 928.92 37.1112 928.707 27.4951 928.564C19.5172 928.422 11.5394 928.279 3.56154 928.208C1.63831 928.208 0.0712308 926.57 0.0712308 924.646V633.028C0.0712308 631.532 1.06846 630.179 2.49308 629.68C11.8955 626.474 21.5117 622.129 30.7005 617.998C41.5275 613.083 52.7108 608.097 63.8228 604.678C49.5054 597.84 34.4757 596.415 18.6625 594.99C13.4626 594.492 8.334 594.065 3.13415 593.352C1.35338 593.138 0.0712308 591.571 0.0712308 589.791V115.892C0.0712308 114.397 0.997231 113.043 2.42185 112.545C6.55323 111.049 10.6846 109.339 14.816 107.701C21.0843 105.137 27.5663 102.43 34.1908 100.507C23.7911 97.4437 13.6763 93.0274 3.84646 88.7535L2.20815 88.0412C0.926 87.4714 0.0712308 86.1892 0.0712308 84.7646V3.56154C0 1.56708 1.56708 0 3.56154 0H1549.63C1551.62 0 1553.19 1.56708 1553.19 3.56154V169.957C1553.19 171.666 1551.98 173.162 1550.27 173.447C1531.6 177.008 1511.8 181.069 1492.28 187.907C1512.73 195.671 1533.6 197.238 1549.7 197.737C1551.62 197.737 1553.19 199.375 1553.19 201.298V721.995C1553.19 723.42 1552.33 724.702 1550.98 725.272C1537.37 730.899 1523.34 735.244 1509.74 739.375C1508.53 739.731 1507.31 740.159 1506.03 740.515C1515.93 741.227 1525.83 742.794 1535.38 744.361C1540.29 745.145 1545.14 745.928 1550.05 746.641C1551.83 746.854 1553.12 748.422 1553.12 750.202V1047.09C1553.12 1048.59 1552.19 1049.87 1550.84 1050.44C1538.8 1055.07 1526.26 1057.56 1514.08 1059.84L1517.07 1060.34C1527.83 1062.26 1539.01 1064.19 1549.91 1065.4C1551.69 1065.61 1553.04 1067.11 1553.04 1068.96V1282.37C1553.04 1284.36 1551.48 1285.93 1549.48 1285.93L1549.63 1286ZM7.12308 1278.88H1546.06V1072.24C1535.95 1070.95 1525.83 1069.17 1515.93 1067.46L1505.96 1065.75C1503.04 1065.26 1501.4 1062.26 1501.33 1059.7C1501.33 1056.99 1502.9 1054.86 1505.39 1054.36L1511.16 1053.29C1522.77 1051.08 1534.67 1048.87 1545.99 1044.81V753.479C1542.07 752.909 1538.16 752.268 1534.24 751.627C1522.42 749.704 1510.23 747.709 1498.27 747.567C1495.7 747.567 1493.64 745.501 1493.21 742.723C1492.78 739.731 1494.21 737.025 1496.77 736.241C1500.4 735.101 1504.04 733.962 1507.67 732.893C1520.35 728.976 1533.46 724.915 1546.06 719.858V204.788C1529.04 204.147 1507.6 202.01 1486.59 193.32C1484.52 192.465 1483.17 190.257 1483.17 187.693C1483.17 185.2 1484.59 183.134 1486.73 182.351C1506.67 175.014 1526.9 170.669 1546.06 167.036V7.12308H7.12308V82.3428C18.0214 87.1152 29.3471 92.0301 40.6728 94.8081C43.0234 95.378 44.5905 97.6574 44.5905 100.507C44.5905 103.285 42.9521 105.564 40.6015 106.063C32.8374 107.843 25.002 111.12 17.3803 114.183C13.9612 115.608 10.5422 117.032 7.05185 118.314V586.443C11.112 586.941 15.1722 587.298 19.1611 587.654C35.9003 589.221 53.2094 590.788 69.5925 599.478C71.6581 600.547 72.8691 603.111 72.6554 605.746C72.4417 608.026 71.0171 609.806 68.9514 610.448C57.2695 613.653 45.2315 619.067 33.5497 624.338C24.9308 628.255 16.0269 632.244 7.12308 635.45V921.085C13.9612 921.156 20.7282 921.299 27.5663 921.441C40.8865 921.655 54.2778 921.94 67.598 921.94C70.3048 921.94 72.4417 924.219 72.7266 927.282C73.0115 930.345 71.3732 932.838 68.7377 933.408C47.7246 937.682 27.5663 946.443 7.12308 955.917V1278.95V1278.88Z" fill="#7A211E"/>
<g style="mix-blend-mode:multiply" opacity="0.4">
<g style="mix-blend-mode:multiply">
<path d="M85.1198 66.9573C58.4082 67.8121 30.2008 71.1599 3.56055 64.6067V84.6938C10.0425 87.543 16.5958 90.3922 23.149 92.8853C81.3445 87.8279 139.398 78.4967 197.664 74.3653C160.838 64.4642 122.445 65.8176 85.1198 66.9573Z" fill="#F9E9D0"/>
</g>
<g style="mix-blend-mode:multiply">
<path d="M189.259 1023.38C215.045 1020.96 240.83 1017.68 266.616 1014.62C219.247 1006 171.451 1002.08 123.656 1001.73C83.4815 1001.44 43.5922 993.108 3.56055 990.829V1030.93C33.335 1029.15 63.1095 1026.87 92.8839 1026.44C125.08 1025.95 157.063 1026.44 189.259 1023.45V1023.38Z" fill="#F9E9D0"/>
</g>
<g style="mix-blend-mode:multiply">
<path d="M356.486 896.648C387.329 894.867 417.887 888.955 448.516 883.897C468.318 880.621 487.906 876.489 507.495 871.29C509.774 870.648 511.982 870.079 514.262 869.509C432.631 870.648 351.001 871.788 269.727 881.974C297.008 896.576 327.566 898.215 356.486 896.576V896.648Z" fill="#F9E9D0"/>
</g>
<g style="mix-blend-mode:multiply">
<path d="M1549.61 451.736V407.715C1493.62 417.759 1437.14 422.246 1381.43 435.068C1435.14 456.508 1493.12 458.574 1549.61 451.736Z" fill="#F9E9D0"/>
</g>
<g style="mix-blend-mode:multiply">
<path d="M858.996 294.38C950.029 309.623 1042.27 303.213 1133.88 292.599C1042.13 297.585 950.314 304.423 858.996 294.38Z" fill="#F9E9D0"/>
</g>
<g style="mix-blend-mode:multiply">
<path d="M1331.64 1106.35C1305.85 1107.14 1280.07 1106.64 1254.35 1108.28C1160.04 1114.33 1065.31 1137.2 970.855 1125.73C973.562 1126.58 976.198 1127.37 978.904 1128.08C1072.43 1153.37 1167.95 1127.44 1262.19 1129.29C1358.14 1131.14 1453.8 1119.18 1549.61 1114.83V1095.53C1503.8 1095.81 1458.07 1099.02 1412.34 1102.01C1385.42 1103.72 1358.56 1105.43 1331.64 1106.28V1106.35Z" fill="#F9E9D0"/>
</g>
<g style="mix-blend-mode:multiply">
<path d="M1549.62 41.8799V23.1462C1499.33 28.9872 1449.04 35.9678 1398.68 40.5265C1448.83 46.225 1499.33 39.8855 1549.62 41.8799Z" fill="#F9E9D0"/>
</g>
<g style="mix-blend-mode:multiply">
<path d="M68.0244 607.012C46.7264 612.782 25.2859 625.461 3.56055 632.869V647.186C16.5958 646.189 29.7022 644.622 42.7375 642.983C77.9255 638.567 112.472 636.145 147.732 636.644C220.245 637.641 292.757 633.51 364.985 625.746C336.778 612.354 304.226 618.053 275.021 615.346C238.693 612.069 202.935 602.667 166.679 598.464C112.259 592.125 57.5535 586.213 3.56055 574.459V589.632C25.2859 592.481 47.4387 591.769 68.0244 602.667C69.3778 603.379 69.8052 606.513 68.0244 607.012Z" fill="#F9E9D0"/>
</g>
</g>
<g style="mix-blend-mode:screen">
<path d="M1450.23 188.112C1469.4 181.06 1488.98 176.929 1508.64 173.225V15.6626H44.5664V92.5206C55.8921 97.5067 67.1466 102.564 78.9709 105.413C80.4667 105.77 80.4667 109.189 78.9709 109.474C67.289 112.18 56.0346 117.95 44.5664 122.01V251.08C57.1742 283.49 71.2779 314.476 86.8062 343.609C141.155 445.54 209.038 525.889 281.907 588.002C356.913 651.967 437.333 698.409 519.533 729.466C599.454 759.597 681.583 776.692 763.57 773.558C953.471 766.221 1142.02 668.92 1302 499.961C1378.43 419.256 1448.38 321.955 1508.57 210.55V202.999C1488.84 202.43 1469.11 200.15 1450.16 192.315C1448.74 191.674 1448.67 188.753 1450.16 188.183L1450.23 188.112Z" fill="#B66633"/>
</g>
<g style="mix-blend-mode:multiply">
<path d="M10.2377 87.6116C91.8682 78.6365 173.997 79.2776 255.414 65.3164C171.718 59.4042 86.3122 72.7244 3.61328 51.8538V84.6911C5.82143 85.6884 8.02959 86.6144 10.309 87.6116H10.2377Z" fill="#F9E9D0"/>
</g>
<g style="mix-blend-mode:multiply">
<path d="M490.401 243.19C560.35 240.484 630.227 236.851 700.176 233.646C769.483 230.511 838.862 226.522 908.169 227.448C964.869 228.232 1021.57 231.865 1078.27 229.799C960.31 212.704 841.569 220.254 723.326 226.166C655.229 229.585 587.061 232.577 518.893 229.799C449.728 226.95 380.635 219.613 311.469 217.191C208.755 213.558 106.04 214.698 3.39648 220.468V277.31C96.0677 268.121 188.668 257.935 281.41 251.596C351.003 246.823 420.666 245.897 490.259 243.262L490.401 243.19Z" fill="#F9E9D0"/>
</g>
<g style="mix-blend-mode:multiply">
<path d="M902.489 142.045C968.378 146.319 1034.34 143.684 1100.23 143.755C1168.46 143.826 1236.63 146.105 1304.87 143.755C1386.43 140.834 1467.99 135.492 1549.62 132.999V67.3955C1300.74 84.3484 1052.07 107.57 803.336 128.583C836.245 135.777 869.367 139.908 902.489 142.045Z" fill="#F9E9D0"/>
</g>
<g style="mix-blend-mode:multiply">
<path d="M1549.62 584.878V515.428C1469.84 528.392 1389.85 538.436 1310.14 553.679C1388.78 583.596 1469.2 583.454 1549.62 584.878Z" fill="#F9E9D0"/>
</g>
<g style="mix-blend-mode:multiply">
<path d="M314.481 789.598C383.575 787.105 452.526 780.338 521.549 774.497C590.358 768.656 660.092 760.678 729.044 765.094C786.313 768.798 846.147 782.119 902.42 758.043C871.149 744.58 837.6 748.284 805.688 750.136C766.013 752.415 726.195 749.566 686.448 749.495C547.619 749.21 409.004 741.446 270.247 736.104C181.351 732.684 92.4546 729.978 3.55859 728.411V805.838C37.7494 802.491 71.9401 797.291 106.06 794.014C175.581 787.318 244.888 792.162 314.481 789.669V789.598Z" fill="#F9E9D0"/>
</g>
<g style="mix-blend-mode:multiply">
<path d="M1112.58 940.676C1042.84 948.44 973.108 953.569 903.373 959.339C870.465 962.045 837.485 966.818 804.576 968.67C779.788 970.094 753.219 968.527 729.285 981.278C755.569 994.384 783.919 992.176 811.058 988.045C841.189 983.486 871.106 978.357 901.307 975.722C1038.43 963.612 1175.19 955.848 1312.45 957.7C1380.69 958.626 1449.29 961.333 1517.45 954.637C1528.21 953.569 1538.89 952.358 1549.65 951.005V905.274C1543.03 905.559 1536.47 905.773 1529.85 906.129C1390.59 912.682 1251.48 925.148 1112.58 940.676Z" fill="#F9E9D0"/>
</g>
<g style="mix-blend-mode:multiply">
<path d="M1424.4 1180.5C1359.36 1198.74 1293.19 1192.82 1227.59 1189.33C1158.71 1185.63 1089.76 1188.26 1020.8 1188.55C950.928 1188.76 880.979 1186.84 811.387 1176.16C744.073 1165.76 677.473 1143.75 609.875 1138.62C540.354 1133.42 473.254 1154.86 404.873 1172.45C338.414 1189.55 273.025 1190.19 206.068 1182.07C172.162 1177.94 138.185 1173.16 104.136 1173.02C70.5867 1172.81 37.037 1175.23 3.55859 1176.51V1282.57H1549.62V1128.79C1508.24 1148.73 1466.92 1168.75 1424.4 1180.64V1180.5Z" fill="#F9E9D0"/>
</g>
<g style="mix-blend-mode:screen">
<path d="M1549.62 3.56909H3.55859V66.2522H1549.62V3.56909Z" fill="#B66633"/>
</g>
<g style="mix-blend-mode:screen">
<path d="M1549.62 1211.47H3.55859V1282.42H1549.62V1211.47Z" fill="#B66633"/>
</g>
</svg>
