<svg width="819" height="512" viewBox="0 0 819 512" fill="none" xmlns="http://www.w3.org/2000/svg">
<path d="M786.838 405.636H783.086V290.191L812.979 260.298L783.086 230.404V114.771H786.838V228.841L818.295 260.298L786.838 291.754V405.636Z" fill="#7A211E"/>
<path d="M35.209 405.636H31.4567V291.754L0 260.298L31.4567 228.841V114.771H35.209V230.404L5.31574 260.298L35.209 290.191V405.636Z" fill="#7A211E"/>
<path d="M805.168 120.755H801.416V226.444H805.168V120.755Z" fill="#7A211E"/>
<path d="M16.9007 120.755H13.1484V226.444H16.9007V120.755Z" fill="#7A211E"/>
<path d="M752.66 448.594H65.6152V452.347H752.66V448.594Z" fill="#7A211E"/>
<path d="M409.137 100.694L377.431 71.9894H65.6152V68.2371H378.869L409.137 95.6288L439.468 68.2371H752.722V71.9894H440.907L409.137 100.694Z" fill="#7A211E"/>
<path d="M805.168 294.127H801.416V399.754H805.168V294.127Z" fill="#7A211E"/>
<path d="M16.9007 294.127H13.1484V399.754H16.9007V294.127Z" fill="#7A211E"/>
<path d="M814.391 461.537H3.95898V302.503L46.1722 260.29L3.95898 218.076V59.0417H368.744L409.206 95.6266L449.669 59.0417H814.454V218.076L772.24 260.29L814.454 302.503V461.537H814.391ZM7.71127 457.785H810.639V304.066L766.862 260.29L810.639 216.513V62.794H451.044L409.144 100.692L367.243 62.794H7.71127V216.513L51.488 260.29L7.71127 304.066V457.785Z" fill="#7A211E"/>
<path d="M409.116 495.233L385.102 473.532H433.131L409.116 495.233ZM394.858 477.285L409.116 490.168L423.375 477.285H394.858Z" fill="#7A211E"/>
<path d="M409.13 86.9181L327.893 13.4358H392.307V17.1881H337.649L409.13 81.8525L480.673 17.1881H426.015V13.4358H490.429L409.13 86.9181Z" fill="#7A211E"/>
<path d="M409.115 72.846L358.959 27.5059H398.358V31.2581H368.715L409.115 67.7804L449.577 31.2581H419.934V27.5059H459.333L409.115 72.846Z" fill="#7A211E"/>
<path d="M409.125 59.0986L383.672 0H434.703L409.187 59.0986H409.125ZM389.363 3.75229L409.187 49.5928L429.012 3.75229H389.425H389.363Z" fill="#7A211E"/>
<path d="M451.572 62.3646L449.008 59.5504L470.521 40.1636H731.243V43.9159H471.959L451.572 62.3646Z" fill="#7A211E"/>
<path d="M366.735 62.3646L346.348 43.9159H87.0645V40.1636H347.786L369.237 59.5504L366.735 62.3646Z" fill="#7A211E"/>
<path d="M736.411 49.2701C732.408 49.2701 729.156 46.0181 729.156 42.0157C729.156 38.0132 732.408 34.7612 736.411 34.7612C740.413 34.7612 743.665 38.0132 743.665 42.0157C743.665 46.0181 740.413 49.2701 736.411 49.2701ZM736.411 38.5135C734.472 38.5135 732.909 40.077 732.909 42.0157C732.909 43.9543 734.472 45.5178 736.411 45.5178C738.349 45.5178 739.913 43.9543 739.913 42.0157C739.913 40.077 738.349 38.5135 736.411 38.5135Z" fill="#7A211E"/>
<path d="M81.9048 49.2701C77.9024 49.2701 74.6504 46.0181 74.6504 42.0157C74.6504 38.0132 77.9024 34.7612 81.9048 34.7612C85.9073 34.7612 89.1593 38.0132 89.1593 42.0157C89.1593 46.0181 85.9073 49.2701 81.9048 49.2701ZM81.9048 38.5135C79.9661 38.5135 78.4027 40.077 78.4027 42.0157C78.4027 43.9543 79.9661 45.5178 81.9048 45.5178C83.8435 45.5178 85.407 43.9543 85.407 42.0157C85.407 40.077 83.8435 38.5135 81.9048 38.5135Z" fill="#7A211E"/>
<path d="M409.136 511.993L370.8 477.285H87.0645V473.532H372.238L409.136 506.928L446.096 473.532H731.27V477.285H447.534L409.136 511.993Z" fill="#7A211E"/>
<path d="M736.657 482.669C732.654 482.669 729.402 479.417 729.402 475.415C729.402 471.412 732.654 468.16 736.657 468.16C740.659 468.16 743.911 471.412 743.911 475.415C743.911 479.417 740.659 482.669 736.657 482.669ZM736.657 471.85C734.718 471.85 733.155 473.413 733.155 475.352C733.155 477.291 734.718 478.854 736.657 478.854C738.595 478.854 740.159 477.291 740.159 475.352C740.159 473.413 738.595 471.85 736.657 471.85Z" fill="#7A211E"/>
<path d="M81.6587 482.669C77.6563 482.669 74.4043 479.417 74.4043 475.415C74.4043 471.412 77.6563 468.16 81.6587 468.16C85.6612 468.16 88.9132 471.412 88.9132 475.415C88.9132 479.417 85.6612 482.669 81.6587 482.669ZM81.6587 471.85C79.72 471.85 78.1566 473.413 78.1566 475.352C78.1566 477.291 79.72 478.854 81.6587 478.854C83.5974 478.854 85.1609 477.291 85.1609 475.352C85.1609 473.413 83.5974 471.85 81.6587 471.85Z" fill="#7A211E"/>
<path d="M812.39 123.332C801.445 123.332 791.002 120.518 781.308 114.89C761.796 103.633 750.164 83.4331 750.164 60.9194V59.0432H814.391V123.332H812.452H812.39ZM753.979 62.7955C754.604 83.1829 765.423 101.382 783.247 111.638C791.814 116.578 801.07 119.267 810.638 119.58V62.7955H753.979Z" fill="#7A211E"/>
<path d="M812.438 109.522C803.933 109.522 795.803 107.334 788.298 102.956C773.101 94.2006 764.033 78.5035 764.033 60.9928V59.1167H814.376V109.522H812.438ZM767.785 62.8065C768.411 78.1908 776.666 91.8867 790.112 99.6414C796.553 103.331 803.432 105.395 810.624 105.645V62.7439H767.785V62.8065Z" fill="#7A211E"/>
<path d="M811.204 59.5533L777.871 92.1951L780.496 94.876L813.829 62.2342L811.204 59.5533Z" fill="#7A211E"/>
<path d="M811.895 59.2384L768.188 75.554L769.5 79.0693L813.207 62.7538L811.895 59.2384Z" fill="#7A211E"/>
<path d="M810.8 60.3405L793.203 103.481L796.678 104.898L814.274 61.7576L810.8 60.3405Z" fill="#7A211E"/>
<path d="M5.88595 123.332H3.94727V59.0432H68.174V60.9194C68.174 83.4331 56.5419 103.633 37.03 114.89C27.3365 120.518 16.8927 123.332 5.94849 123.332H5.88595ZM7.69956 62.7955V119.58C17.3304 119.267 26.5235 116.641 35.0913 111.638C52.9146 101.382 63.7338 83.1829 64.3591 62.7955H7.69956Z" fill="#7A211E"/>
<path d="M5.88595 109.522H3.94727V59.1167H54.2905V60.9928C54.2905 78.5035 45.2225 94.2006 30.0257 102.956C22.4586 107.334 14.3286 109.522 5.88595 109.522ZM7.69956 62.8065V105.708C14.8914 105.395 21.7706 103.394 28.2121 99.704C41.6578 91.9492 49.9128 78.2534 50.5382 62.869H7.69956V62.8065Z" fill="#7A211E"/>
<path d="M7.15409 59.6359L4.52734 62.3154L37.8429 94.9746L40.4696 92.2951L7.15409 59.6359Z" fill="#7A211E"/>
<path d="M6.43713 59.1914L5.12305 62.7061L48.8221 79.0444L50.1361 75.5298L6.43713 59.1914Z" fill="#7A211E"/>
<path d="M7.56813 60.2403L4.09375 61.6575L21.6902 104.798L25.1646 103.381L7.56813 60.2403Z" fill="#7A211E"/>
<path d="M814.445 461.406H750.156V459.53C750.156 448.586 752.971 438.08 758.599 428.386C769.856 408.874 790.056 397.242 812.569 397.242H814.445V461.469V461.406ZM753.909 457.654H810.693V400.994C790.243 401.62 772.107 412.439 761.851 430.262C756.91 438.83 754.221 448.086 753.909 457.654Z" fill="#7A211E"/>
<path d="M68.1428 461.419H3.85352V397.192H5.72966C28.2434 397.192 48.4432 408.824 59.7001 428.336C65.3285 438.092 68.1428 448.536 68.1428 459.48V461.356V461.419ZM7.60581 457.666H64.3905C64.0778 448.035 61.4512 438.842 56.4481 430.275C46.1919 412.451 27.9932 401.632 7.60581 401.007V457.666Z" fill="#7A211E"/>
<path d="M814.445 461.401H764.039V459.525C764.039 451.02 766.228 442.827 770.606 435.26C779.361 420.063 795.058 410.995 812.569 410.995H814.445V461.338V461.401ZM767.791 457.649H810.693V414.81C795.308 415.435 781.612 423.69 773.858 437.136C770.168 443.577 768.104 450.457 767.854 457.649H767.791Z" fill="#7A211E"/>
<path d="M54.2593 461.408H3.85352V411.065H5.72966C23.2403 411.065 38.9374 420.133 47.6928 435.33C52.0704 442.897 54.2593 451.027 54.2593 459.595V461.471V461.408ZM7.60581 457.656H50.507C50.1943 450.464 48.1931 443.585 44.5033 437.144C36.7486 423.698 23.0527 415.443 7.66834 414.817V457.656H7.60581Z" fill="#7A211E"/>
<path d="M781.17 424.959L778.49 427.586L811.149 460.901L813.829 458.275L781.17 424.959Z" fill="#7A211E"/>
<path d="M36.9874 424.91L4.33984 458.237L7.02029 460.863L39.6678 427.536L36.9874 424.91Z" fill="#7A211E"/>
<path d="M797.991 415.227L794.477 416.541L810.815 460.24L814.33 458.926L797.991 415.227Z" fill="#7A211E"/>
<path d="M20.2897 415.173L3.95898 458.875L7.47387 460.188L23.8046 416.486L20.2897 415.173Z" fill="#7A211E"/>
<path d="M769.997 440.205L768.58 443.679L811.72 461.276L813.138 457.802L769.997 440.205Z" fill="#7A211E"/>
<path d="M48.2254 440.161L5.08203 457.75L6.4986 461.224L49.6419 443.635L48.2254 440.161Z" fill="#7A211E"/>
</svg>
