<svg width="345" height="111" viewBox="0 0 345 111" fill="none" xmlns="http://www.w3.org/2000/svg">
<path d="M309.133 2.10693H38.007C12.5893 20.4077 3.70278 42.2352 1.79057 54.4006C1.28483 57.6181 1.57105 60.8968 2.31232 64.0683C8.45395 90.3446 28.3233 104.942 38.007 109.092H309.133C336.099 85.643 342.84 62.1943 342.84 53.401C342.84 38.1593 320.369 12.8543 309.133 2.10693Z" stroke="#73482C" stroke-width="2.93109"/>
<path d="M301.931 9.42822H43.6054C20.1301 24.9808 11.4547 43.4387 9.28534 54.2702C8.59122 57.7359 8.92062 61.3148 9.85263 64.7243C15.9825 87.1484 34.5097 99.6362 43.6054 103.223H301.931C327.624 82.6653 334.048 64.0348 334.048 56.3257C334.048 42.9631 312.637 18.8505 301.931 9.42822Z" fill="#A06033" stroke="#73482C" stroke-width="2.93109"/>
<path d="M10.163 60.7223C8.99061 39.6185 33.1233 18.71 45.3361 10.8938C-1.5604 47.2393 23.8411 86.6136 42.4039 101.758C23.3518 94.4299 12.6052 70.0041 10.163 60.7223Z" fill="#73482C"/>
<path d="M332.585 59.2568C333.758 38.1529 307.672 16.756 294.477 10.8938C341.374 47.2393 315.972 86.6136 297.41 101.758C316.462 94.4299 329.655 70.9812 332.585 59.2568Z" fill="#73482C"/>
<path d="M108.408 71H102.974L112.868 42.8967H119.153L129.06 71H123.626L116.12 48.66H115.901L108.408 71ZM108.587 59.981H123.407V64.0702H108.587V59.981ZM141.095 71.4117C138.991 71.4117 137.184 70.9497 135.674 70.0257C134.174 69.1017 133.017 67.8256 132.203 66.1972C131.398 64.5597 130.995 62.6751 130.995 60.5436C130.995 58.4029 131.407 56.5138 132.23 54.8763C133.054 53.2296 134.215 51.9488 135.716 51.034C137.225 50.11 139.009 49.6481 141.067 49.6481C142.778 49.6481 144.292 49.9637 145.609 50.5949C146.936 51.217 147.993 52.0998 148.779 53.2433C149.566 54.3777 150.014 55.7042 150.124 57.2228H145.376C145.184 56.2073 144.727 55.3611 144.004 54.6841C143.29 53.998 142.334 53.655 141.136 53.655C140.121 53.655 139.229 53.9294 138.46 54.4783C137.692 55.0181 137.092 55.7957 136.663 56.8111C136.242 57.8266 136.031 59.0433 136.031 60.4612C136.031 61.8975 136.242 63.1325 136.663 64.1663C137.083 65.1909 137.673 65.9822 138.433 66.5402C139.201 67.0891 140.102 67.3636 141.136 67.3636C141.868 67.3636 142.522 67.2264 143.098 66.9519C143.684 66.6683 144.173 66.2612 144.567 65.7306C144.96 65.2 145.23 64.5551 145.376 63.7958H150.124C150.005 65.2869 149.566 66.6089 148.807 67.7615C148.047 68.9051 147.014 69.8016 145.706 70.4511C144.397 71.0915 142.86 71.4117 141.095 71.4117ZM163.397 71.4117C161.293 71.4117 159.486 70.9497 157.977 70.0257C156.476 69.1017 155.319 67.8256 154.505 66.1972C153.7 64.5597 153.297 62.6751 153.297 60.5436C153.297 58.4029 153.709 56.5138 154.532 54.8763C155.356 53.2296 156.518 51.9488 158.018 51.034C159.527 50.11 161.311 49.6481 163.37 49.6481C165.08 49.6481 166.594 49.9637 167.912 50.5949C169.238 51.217 170.295 52.0998 171.082 53.2433C171.868 54.3777 172.317 55.7042 172.426 57.2228H167.678C167.486 56.2073 167.029 55.3611 166.306 54.6841C165.593 53.998 164.637 53.655 163.438 53.655C162.423 53.655 161.531 53.9294 160.762 54.4783C159.994 55.0181 159.395 55.7957 158.965 56.8111C158.544 57.8266 158.333 59.0433 158.333 60.4612C158.333 61.8975 158.544 63.1325 158.965 64.1663C159.386 65.1909 159.976 65.9822 160.735 66.5402C161.503 67.0891 162.404 67.3636 163.438 67.3636C164.17 67.3636 164.824 67.2264 165.4 66.9519C165.986 66.6683 166.475 66.2612 166.869 65.7306C167.262 65.2 167.532 64.5551 167.678 63.7958H172.426C172.307 65.2869 171.868 66.6089 171.109 67.7615C170.35 68.9051 169.316 69.8016 168.008 70.4511C166.7 71.0915 165.163 71.4117 163.397 71.4117ZM185.836 71.4117C183.723 71.4117 181.898 70.9726 180.361 70.0943C178.834 69.2069 177.658 67.9536 176.835 66.3344C176.011 64.706 175.6 62.7895 175.6 60.5848C175.6 58.4166 176.011 56.5138 176.835 54.8763C177.667 53.2296 178.829 51.9488 180.32 51.034C181.811 50.11 183.563 49.6481 185.576 49.6481C186.875 49.6481 188.101 49.8585 189.253 50.2793C190.415 50.691 191.44 51.3313 192.327 52.2004C193.224 53.0695 193.928 54.1764 194.44 55.5212C194.953 56.8569 195.209 58.4486 195.209 60.2966V61.8198H177.932V58.4715H190.447C190.438 57.5201 190.232 56.6739 189.83 55.9329C189.427 55.1827 188.865 54.5927 188.142 54.1627C187.428 53.7327 186.596 53.5178 185.644 53.5178C184.629 53.5178 183.737 53.7648 182.969 54.2588C182.2 54.7436 181.601 55.384 181.171 56.1799C180.75 56.9666 180.535 57.8311 180.526 58.7734V61.6963C180.526 62.9221 180.75 63.9742 181.198 64.8524C181.647 65.7215 182.273 66.3893 183.078 66.8559C183.883 67.3133 184.826 67.542 185.905 67.542C186.628 67.542 187.282 67.4413 187.867 67.2401C188.453 67.0297 188.961 66.7232 189.391 66.3207C189.821 65.9182 190.145 65.4196 190.365 64.825L195.003 65.3464C194.71 66.5723 194.152 67.6426 193.329 68.5574C192.515 69.4631 191.472 70.1675 190.2 70.6707C188.929 71.1647 187.474 71.4117 185.836 71.4117ZM199.411 78.9041V49.9225H204.296V53.408H204.585C204.841 52.8957 205.202 52.3514 205.669 51.775C206.135 51.1895 206.766 50.691 207.562 50.2793C208.358 49.8585 209.374 49.6481 210.609 49.6481C212.237 49.6481 213.705 50.0643 215.014 50.8968C216.331 51.7201 217.374 52.9414 218.142 54.5606C218.92 56.1707 219.309 58.1467 219.309 60.4887C219.309 62.8032 218.929 64.7701 218.17 66.3893C217.41 68.0085 216.377 69.2435 215.068 70.0943C213.76 70.9451 212.278 71.3705 210.622 71.3705C209.415 71.3705 208.413 71.1692 207.617 70.7667C206.821 70.3642 206.181 69.8793 205.696 69.3122C205.22 68.7358 204.85 68.1915 204.585 67.6792H204.379V78.9041H199.411ZM204.283 60.4612C204.283 61.8243 204.475 63.0182 204.859 64.0428C205.252 65.0674 205.815 65.8678 206.547 66.4442C207.288 67.0114 208.184 67.295 209.236 67.295C210.334 67.295 211.254 67.0022 211.995 66.4167C212.736 65.8221 213.294 65.0125 213.669 63.9879C214.053 62.9541 214.245 61.7786 214.245 60.4612C214.245 59.1531 214.058 57.9912 213.683 56.9758C213.307 55.9603 212.749 55.1644 212.008 54.5881C211.267 54.0118 210.343 53.7236 209.236 53.7236C208.175 53.7236 207.274 54.0026 206.533 54.5606C205.792 55.1187 205.23 55.9009 204.845 56.9072C204.47 57.9135 204.283 59.0982 204.283 60.4612ZM234.088 49.9225V53.7648H221.971V49.9225H234.088ZM224.962 44.8727H229.93V64.6603C229.93 65.3281 230.03 65.8404 230.232 66.1972C230.442 66.5448 230.717 66.7827 231.055 66.9107C231.393 67.0388 231.769 67.1029 232.18 67.1029C232.491 67.1029 232.775 67.08 233.031 67.0342C233.296 66.9885 233.498 66.9473 233.635 66.9107L234.472 70.7942C234.207 70.8856 233.827 70.9863 233.333 71.0961C232.848 71.2058 232.253 71.2699 231.549 71.2882C230.305 71.3248 229.184 71.1372 228.187 70.7256C227.19 70.3047 226.399 69.6552 225.813 68.777C225.237 67.8988 224.953 66.801 224.962 65.4836V44.8727Z" fill="#EDE3D3"/>
</svg>
