<svg width="770" height="109" viewBox="0 0 770 109" fill="none" xmlns="http://www.w3.org/2000/svg">
<path d="M736.108 0.0488281H34.1118L0.404297 49.8774L34.1118 108.499H736.108L769.815 49.8774L736.108 0.0488281Z" fill="#73482C"/>
<path d="M730.211 8.83594H39.9394L15.0251 52.8023L39.9394 96.7687H730.211L758.057 52.8023L730.211 8.83594Z" fill="#A06033"/>
<path d="M734.639 52.8171C738.547 47.9319 746.656 39.3341 747.829 38.1616L750.76 42.5583L741.966 52.8171L752.225 63.0759L747.829 68.9381L734.639 52.8171Z" fill="#E2C490"/>
<path d="M37.0413 52.8171C33.1331 47.9319 25.0238 39.3341 23.8514 38.1616L20.9203 42.5583L29.7135 52.8171L20.9203 61.6103L25.3169 67.4725L37.0413 52.8171Z" fill="#E2C490"/>
<path d="M271.159 73H258.664V36.1268H271.411C275.072 36.1268 278.217 36.865 280.846 38.3414C283.486 39.8057 285.515 41.9123 286.931 44.661C288.348 47.4096 289.056 50.6985 289.056 54.5274C289.056 58.3684 288.342 61.6692 286.913 64.4299C285.497 67.1906 283.45 69.3091 280.774 70.7854C278.109 72.2618 274.904 73 271.159 73ZM265.344 67.2206H270.835C273.404 67.2206 275.546 66.7524 277.263 65.8162C278.979 64.868 280.27 63.4576 281.134 61.5852C281.998 59.7007 282.43 57.3481 282.43 54.5274C282.43 51.7067 281.998 49.3661 281.134 47.5057C280.27 45.6332 278.991 44.2348 277.299 43.3106C275.618 42.3744 273.53 41.9063 271.033 41.9063H265.344V67.2206ZM295.114 73V45.3451H301.632V73H295.114ZM298.391 41.4201C297.359 41.4201 296.471 41.0781 295.726 40.3939C294.982 39.6977 294.61 38.8635 294.61 37.8913C294.61 36.907 294.982 36.0728 295.726 35.3886C296.471 34.6925 297.359 34.3444 298.391 34.3444C299.435 34.3444 300.324 34.6925 301.056 35.3886C301.8 36.0728 302.172 36.907 302.172 37.8913C302.172 38.8635 301.8 39.6977 301.056 40.3939C300.324 41.0781 299.435 41.4201 298.391 41.4201ZM330.192 52.6549L324.25 53.3031C324.082 52.703 323.788 52.1388 323.368 51.6107C322.96 51.0825 322.408 50.6564 321.711 50.3324C321.015 50.0083 320.163 49.8462 319.155 49.8462C317.798 49.8462 316.658 50.1403 315.734 50.7285C314.822 51.3166 314.372 52.0788 314.384 53.015C314.372 53.8192 314.666 54.4734 315.266 54.9775C315.878 55.4816 316.886 55.8957 318.291 56.2198L323.008 57.2281C325.624 57.7922 327.569 58.6864 328.841 59.9107C330.126 61.135 330.774 62.7374 330.786 64.7179C330.774 66.4584 330.264 67.9948 329.255 69.3271C328.259 70.6474 326.873 71.6797 325.096 72.4239C323.32 73.168 321.279 73.5401 318.975 73.5401C315.59 73.5401 312.865 72.832 310.801 71.4156C308.736 69.9873 307.506 68.0008 307.11 65.4561L313.465 64.844C313.753 66.0923 314.366 67.0345 315.302 67.6707C316.238 68.3068 317.456 68.6249 318.957 68.6249C320.505 68.6249 321.747 68.3068 322.684 67.6707C323.632 67.0345 324.106 66.2483 324.106 65.3121C324.106 64.5199 323.8 63.8657 323.188 63.3496C322.588 62.8335 321.651 62.4374 320.379 62.1613L315.662 61.1711C313.009 60.6189 311.047 59.6887 309.774 58.3804C308.502 57.06 307.872 55.3916 307.884 53.3751C307.872 51.6707 308.334 50.1943 309.27 48.946C310.219 47.6857 311.533 46.7135 313.213 46.0293C314.906 45.3331 316.856 44.985 319.065 44.985C322.306 44.985 324.856 45.6752 326.717 47.0555C328.589 48.4359 329.747 50.3024 330.192 52.6549ZM348.223 73.5401C345.462 73.5401 343.092 72.934 341.111 71.7217C339.143 70.5094 337.624 68.835 336.556 66.6984C335.5 64.5499 334.972 62.0773 334.972 59.2806C334.972 56.4719 335.512 53.9933 336.592 51.8447C337.672 49.6842 339.197 48.0038 341.165 46.8035C343.146 45.5912 345.486 44.985 348.187 44.985C350.432 44.985 352.418 45.3991 354.146 46.2273C355.887 47.0435 357.273 48.2018 358.306 49.7022C359.338 51.1906 359.926 52.931 360.07 54.9235H353.84C353.588 53.5912 352.988 52.4809 352.04 51.5927C351.104 50.6925 349.849 50.2423 348.277 50.2423C346.945 50.2423 345.774 50.6024 344.766 51.3226C343.758 52.0308 342.972 53.051 342.408 54.3834C341.855 55.7157 341.579 57.3121 341.579 59.1726C341.579 61.057 341.855 62.6774 342.408 64.0338C342.96 65.3781 343.734 66.4164 344.73 67.1485C345.738 67.8687 346.921 68.2288 348.277 68.2288C349.237 68.2288 350.095 68.0488 350.852 67.6887C351.62 67.3166 352.262 66.7825 352.778 66.0863C353.294 65.3901 353.648 64.5439 353.84 63.5476H360.07C359.914 65.5041 359.338 67.2386 358.342 68.7509C357.345 70.2513 355.989 71.4276 354.273 72.2798C352.556 73.12 350.54 73.5401 348.223 73.5401ZM371.939 36.1268V73H365.422V36.1268H371.939ZM386.6 73.5581C384.847 73.5581 383.269 73.2461 381.864 72.6219C380.472 71.9857 379.368 71.0495 378.552 69.8132C377.747 68.5769 377.345 67.0525 377.345 65.2401C377.345 63.6797 377.633 62.3894 378.209 61.3691C378.786 60.3489 379.572 59.5327 380.568 58.9205C381.564 58.3083 382.687 57.8462 383.935 57.5342C385.195 57.2101 386.498 56.976 387.842 56.832C389.462 56.6639 390.777 56.5139 391.785 56.3819C392.793 56.2378 393.525 56.0218 393.981 55.7337C394.45 55.4336 394.684 54.9715 394.684 54.3474V54.2393C394.684 52.883 394.281 51.8327 393.477 51.0886C392.673 50.3444 391.515 49.9723 390.002 49.9723C388.406 49.9723 387.14 50.3204 386.203 51.0165C385.279 51.7127 384.655 52.5349 384.331 53.4831L378.245 52.6189C378.726 50.9385 379.518 49.5342 380.622 48.4059C381.726 47.2656 383.077 46.4134 384.673 45.8492C386.269 45.2731 388.034 44.985 389.966 44.985C391.299 44.985 392.625 45.1411 393.945 45.4531C395.266 45.7652 396.472 46.2814 397.564 47.0015C398.657 47.7097 399.533 48.676 400.193 49.9003C400.865 51.1246 401.201 52.6549 401.201 54.4914V73H394.936V69.2011H394.72C394.323 69.9692 393.765 70.6894 393.045 71.3616C392.337 72.0218 391.443 72.5559 390.363 72.964C389.294 73.3601 388.04 73.5581 386.6 73.5581ZM388.292 68.7689C389.6 68.7689 390.735 68.5109 391.695 67.9948C392.655 67.4666 393.393 66.7705 393.909 65.9062C394.438 65.042 394.702 64.0998 394.702 63.0795V59.8207C394.498 59.9888 394.149 60.1448 393.657 60.2888C393.177 60.4329 392.637 60.5589 392.037 60.6669C391.437 60.775 390.843 60.871 390.254 60.955C389.666 61.039 389.156 61.111 388.724 61.1711C387.752 61.3031 386.882 61.5191 386.113 61.8192C385.345 62.1193 384.739 62.5394 384.295 63.0795C383.851 63.6077 383.629 64.2918 383.629 65.132C383.629 66.3323 384.067 67.2386 384.943 67.8507C385.819 68.4629 386.936 68.7689 388.292 68.7689ZM407.755 73V45.3451H414.272V73H407.755ZM411.032 41.4201C409.999 41.4201 409.111 41.0781 408.367 40.3939C407.623 39.6977 407.251 38.8635 407.251 37.8913C407.251 36.907 407.623 36.0728 408.367 35.3886C409.111 34.6925 409.999 34.3444 411.032 34.3444C412.076 34.3444 412.964 34.6925 413.696 35.3886C414.44 36.0728 414.813 36.907 414.813 37.8913C414.813 38.8635 414.44 39.6977 413.696 40.3939C412.964 41.0781 412.076 41.4201 411.032 41.4201ZM420.975 73V45.3451H427.204V50.0443H427.528C428.104 48.4599 429.059 47.2236 430.391 46.3354C431.723 45.4351 433.314 44.985 435.162 44.985C437.035 44.985 438.613 45.4411 439.897 46.3534C441.194 47.2536 442.106 48.4839 442.634 50.0443H442.922C443.534 48.5079 444.566 47.2836 446.019 46.3714C447.483 45.4471 449.218 44.985 451.222 44.985C453.767 44.985 455.843 45.7892 457.452 47.3976C459.06 49.006 459.864 51.3526 459.864 54.4374V73H453.329V55.4456C453.329 53.7292 452.873 52.4749 451.96 51.6827C451.048 50.8785 449.932 50.4764 448.611 50.4764C447.039 50.4764 445.809 50.9685 444.921 51.9528C444.044 52.925 443.606 54.1913 443.606 55.7517V73H437.215V55.1756C437.215 53.7472 436.783 52.6069 435.918 51.7547C435.066 50.9025 433.95 50.4764 432.569 50.4764C431.633 50.4764 430.781 50.7165 430.013 51.1966C429.245 51.6647 428.633 52.3309 428.176 53.1951C427.72 54.0473 427.492 55.0435 427.492 56.1838V73H420.975ZM478.719 73.5401C475.947 73.5401 473.552 72.964 471.536 71.8117C469.531 70.6474 467.989 69.003 466.909 66.8785C465.828 64.7419 465.288 62.2273 465.288 59.3346C465.288 56.4899 465.828 53.9933 466.909 51.8447C468.001 49.6842 469.525 48.0038 471.482 46.8035C473.438 45.5912 475.737 44.985 478.377 44.985C480.082 44.985 481.69 45.2611 483.203 45.8132C484.727 46.3534 486.071 47.1936 487.236 48.3339C488.412 49.4741 489.336 50.9265 490.008 52.6909C490.68 54.4434 491.017 56.5319 491.017 58.9565V60.955H468.349V56.5619H484.769C484.757 55.3136 484.487 54.2033 483.959 53.2311C483.431 52.2468 482.692 51.4726 481.744 50.9085C480.808 50.3444 479.716 50.0623 478.467 50.0623C477.135 50.0623 475.965 50.3864 474.957 51.0345C473.948 51.6707 473.162 52.5109 472.598 53.5552C472.046 54.5874 471.764 55.7217 471.752 56.958V60.793C471.752 62.4014 472.046 63.7817 472.634 64.934C473.222 66.0743 474.044 66.9505 475.101 67.5626C476.157 68.1628 477.393 68.4629 478.809 68.4629C479.758 68.4629 480.616 68.3308 481.384 68.0668C482.152 67.7907 482.818 67.3886 483.383 66.8605C483.947 66.3323 484.373 65.6782 484.661 64.898L490.746 65.5822C490.362 67.1906 489.63 68.5949 488.55 69.7952C487.482 70.9835 486.113 71.9077 484.445 72.5679C482.776 73.2161 480.868 73.5401 478.719 73.5401ZM496.53 73V45.3451H502.85V49.9543H503.138C503.642 48.3579 504.506 47.1276 505.731 46.2634C506.967 45.3871 508.377 44.949 509.962 44.949C510.322 44.949 510.724 44.967 511.168 45.003C511.624 45.027 512.002 45.0691 512.302 45.1291V51.1246C512.026 51.0285 511.588 50.9445 510.988 50.8725C510.4 50.7885 509.83 50.7465 509.278 50.7465C508.089 50.7465 507.021 51.0045 506.073 51.5207C505.137 52.0248 504.398 52.727 503.858 53.6272C503.318 54.5274 503.048 55.5657 503.048 56.742V73H496.53Z" fill="#F5DEBC"/>
</svg>
