<svg width="96" height="91" viewBox="0 0 96 91" fill="none" xmlns="http://www.w3.org/2000/svg">
<path d="M61.1583 87.0278C61.1544 87.9484 60.787 88.8302 60.136 89.4812C59.485 90.1322 58.6032 90.4997 57.6825 90.5035H3.47573C2.5551 90.4997 1.67327 90.1322 1.02227 89.4812C0.371281 88.8302 0.00385208 87.9484 0 87.0278V80.7129C0.00385208 79.7923 0.371281 78.9105 1.02227 78.2595C1.67327 77.6085 2.5551 77.241 3.47573 77.2372H57.6825C58.6038 77.2391 59.4867 77.6059 60.1381 78.2573C60.7895 78.9088 61.1563 79.7917 61.1583 80.7129V87.0278ZM40.9112 68.0978C40.378 68.0982 39.8501 67.993 39.3578 67.7883C38.8655 67.5835 38.4186 67.2834 38.0428 66.9051L14.6493 43.5189C13.8886 42.7582 13.4612 41.7264 13.4612 40.6505C13.4612 39.5747 13.8886 38.5429 14.6493 37.7821C15.4101 37.0214 16.4418 36.594 17.5177 36.594C18.5936 36.594 19.6253 37.0214 20.3861 37.7821L43.7723 61.183C44.34 61.7499 44.7267 62.4726 44.8834 63.2594C45.0402 64.0463 44.9599 64.862 44.6528 65.6032C44.3456 66.3444 43.8254 66.9778 43.1581 67.4232C42.4907 67.8686 41.7062 68.1059 40.9039 68.1051L40.9112 68.0978ZM94.5473 75.3566L62.029 42.8311L69.9684 34.8991L46.7505 11.6812L25.018 33.4137L48.2359 56.6243L56.2996 48.5679L88.8251 81.0934C89.2018 81.4701 89.649 81.7689 90.1412 81.9728C90.6333 82.1766 91.1608 82.2816 91.6935 82.2816C92.2262 82.2816 92.7537 82.1766 93.2459 81.9728C93.738 81.7689 94.1852 81.4701 94.5619 81.0934C94.9386 80.7167 95.2374 80.2695 95.4413 79.7774C95.6451 79.2852 95.75 78.7577 95.75 78.225C95.75 77.6923 95.6451 77.1648 95.4413 76.6727C95.2374 76.1805 94.9386 75.7333 94.5619 75.3566H94.5473ZM77.4979 31.5038C76.9665 31.5042 76.4402 31.3997 75.9492 31.1962C75.4583 30.9928 75.0123 30.6945 74.6368 30.3184L51.236 6.92492C50.8593 6.54824 50.5605 6.10105 50.3566 5.60889C50.1528 5.11673 50.0478 4.58923 50.0478 4.05652C50.0478 3.52381 50.1528 2.99632 50.3566 2.50416C50.5605 2.012 50.8593 1.56481 51.236 1.18813C51.6127 0.811445 52.0598 0.512643 52.552 0.308783C53.0442 0.104924 53.5717 -3.969e-09 54.1044 0C54.6371 3.969e-09 55.1646 0.104924 55.6567 0.308783C56.1489 0.512643 56.5961 0.811445 56.9728 1.18813L80.359 24.5816C80.9262 25.1482 81.3128 25.8701 81.4698 26.6563C81.6267 27.4425 81.5471 28.2576 81.2408 28.9985C80.9346 29.7394 80.4156 30.3729 79.7493 30.8188C79.0831 31.2648 78.2996 31.5032 77.4979 31.5038Z" fill="#DEC195"/>
</svg>
