<svg width="55" height="55" viewBox="0 0 55 55" fill="none" xmlns="http://www.w3.org/2000/svg">
<path d="M53.8427 26.7779L49.9011 22.8363C49.2326 22.1685 48.3465 21.7631 47.4041 21.694C46.4618 21.6248 45.526 21.8964 44.7671 22.4594L32.5382 10.2304C33.1014 9.47185 33.3735 8.53619 33.3048 7.59386C33.236 6.65154 32.8311 5.76525 32.1637 5.09644L28.2221 1.1548C27.8561 0.788687 27.4215 0.498268 26.9432 0.300126C26.4649 0.101983 25.9523 0 25.4346 0C24.9169 0 24.4043 0.101983 23.926 0.300126C23.4477 0.498268 23.0132 0.788687 22.6471 1.1548L6.88058 16.9214C6.51447 17.2874 6.22405 17.7219 6.02591 18.2002C5.82776 18.6785 5.72578 19.1911 5.72578 19.7088C5.72578 20.2265 5.82776 20.7392 6.02591 21.2174C6.22405 21.6957 6.51447 22.1303 6.88058 22.4963L10.8222 26.4379C11.4909 27.1047 12.3767 27.5092 13.3185 27.5779C14.2602 27.6466 15.1954 27.375 15.9537 26.8124L17.7201 28.5787L1.61356 44.6853C0.543507 45.8556 -0.0339096 47.3935 0.00154086 48.9789C0.0369913 50.5642 0.682576 52.0748 1.80388 53.1961C2.92517 54.3174 4.43577 54.963 6.02113 54.9985C7.60649 55.0339 9.14443 54.4565 10.3147 53.3864L26.4188 37.2799L28.1851 39.0438C27.6219 39.8024 27.3498 40.738 27.4186 41.6804C27.4873 42.6227 27.8922 43.509 28.5596 44.1778L32.5012 48.1194C32.8673 48.4855 33.3018 48.776 33.7801 48.9741C34.2584 49.1722 34.771 49.2742 35.2887 49.2742C35.8064 49.2742 36.319 49.1722 36.7973 48.9741C37.2756 48.776 37.7102 48.4855 38.0762 48.1194L53.8427 32.3529C54.2089 31.9868 54.4993 31.5523 54.6974 31.074C54.8956 30.5957 54.9975 30.0831 54.9975 29.5654C54.9975 29.0477 54.8956 28.5351 54.6974 28.0568C54.4993 27.5785 54.2089 27.1439 53.8427 26.7779ZM13.6085 23.6517L9.66682 19.7101L25.4334 3.94351L29.375 7.88515L13.6085 23.6517ZM7.52848 50.5977C7.11307 51.0107 6.55112 51.2425 5.96538 51.2425C5.37963 51.2425 4.81769 51.0107 4.40227 50.5977C3.99007 50.1824 3.75876 49.621 3.75876 49.0359C3.75876 48.4507 3.99007 47.8893 4.40227 47.474L20.5063 31.3675L23.6325 34.4912L7.52848 50.5977ZM18.7819 24.0606L29.784 13.0585L41.939 25.2136L30.9394 36.2157L18.7819 24.0606ZM35.2875 45.3307L31.3458 41.3891L32.3312 40.4037L46.127 26.6079L47.1124 25.6225L51.054 29.5642L35.2875 45.3307Z" fill="#A06033"/>
</svg>
