<svg width="39" height="39" viewBox="0 0 39 39" fill="none" xmlns="http://www.w3.org/2000/svg">
<path d="M29.3107 9.4556H29.3315M11.3189 36.2175H27.9587C32.5536 36.2175 36.2786 32.4731 36.2786 27.8544V11.1282C36.2786 6.50941 32.5536 2.76514 27.9587 2.76514H11.3189C6.72397 2.76514 2.99902 6.50941 2.99902 11.1282V27.8544C2.99902 32.4731 6.72397 36.2175 11.3189 36.2175ZM27.4387 19.4913C27.4387 23.8215 23.9467 27.3317 19.6388 27.3317C15.3311 27.3317 11.8389 23.8215 11.8389 19.4913C11.8389 15.1612 15.3311 11.6509 19.6388 11.6509C23.9467 11.6509 27.4387 15.1612 27.4387 19.4913Z" stroke="#DEC195" stroke-width="5.12709" stroke-linecap="round" stroke-linejoin="round"/>
</svg>
