<svg width="36" height="37" viewBox="0 0 36 37" fill="none" xmlns="http://www.w3.org/2000/svg">
<path fill-rule="evenodd" clip-rule="evenodd" d="M8.79588 11.9594V36.3522H-0.000314362V11.9594H8.79588ZM22.0556 11.9143V13.3517C23.3396 12.5186 24.8204 12.0343 27.0659 12.0343C34.3791 12.0343 35.3162 17.7415 35.3162 22.7134V36.3516H26.4758V23.3932C26.4758 21.2138 25.7 20.8006 24.2657 20.8006C22.902 20.8006 22.0556 21.236 22.0556 23.3932V36.3516H13.2152V11.9143H22.0556ZM4.39712 0.851562C6.82381 0.851562 8.79522 2.83542 8.79522 5.27249C8.79522 7.70955 6.82381 9.69341 4.3971 9.69341C1.97266 9.69341 -0.000976562 7.70955 -0.000976562 5.27247C-0.000976562 2.83544 1.97264 0.851562 4.39712 0.851562Z" fill="#DEC195"/>
</svg>
