<?xml version="1.0" encoding="UTF-8"?>
<svg id="Layer_2" xmlns="http://www.w3.org/2000/svg" viewBox="0 0 84.4 17.24">
  <defs>
    <style>
      .cls-1 {
        fill: #F9E9D0;
      }

      .cls-2 {
        fill: #5a310a;
      }
    </style>
  </defs>
  <g id="Layer_1-2" data-name="Layer_1">
    <g>
      <path class="cls-2" d="M84.25,7.2c-.05-.14.02-.21.12-.27-.15-.07-.29-.14-.45-.17-.05,0-.05-.08,0-.08.12-.01.24-.02.36-.04-.07-.16-.14-.32-.21-.49,0,0,0,0,0,.01-.01,0-.02-.02-.03-.03,0-.01-.01-.03-.02-.04-.02-.08-.04-.16-.07-.24-.04-.1-.08-.2-.12-.3-.1-.23-.22-.45-.33-.66-.12-.25-.26-.49-.4-.73-.2-.3-.4-.59-.59-.89-.2-.26-.44-.49-.66-.74-.03-.04-.07-.08-.1-.11-.04-.04-.07-.07-.11-.11-.26-.26-.53-.5-.82-.72-.33-.25-.67-.41-1.04-.59-.13-.06-.27-.11-.4-.15-.18-.05-.37-.09-.56-.12-.08,0-.17,0-.24,0-.04,0-.07.01-.11.02h0s-.04,0-.04,0c0,0,0-.42-.07-.52-.06-.1-.17-.09-.26-.17-.07-.03-.14-.05-.21-.05-.34,0-.66.09-1,.12-.16.03-.32.06-.47.08-.51.08-8.61.12-9.12.2-.48.07-1.13.22-1.62.11-.42-.09-.88-.15-1.31-.17-.17,0-.31-.02-.45-.02-.05,0-.1.01-.16.03-.2.04-.43.09-.52.3-.02.06-.04.12-.07.17-.01.17-.13.56-.14.52-.05-.18-.19-.48-.37-.65-.15.08-.31.17-.47.17-.34,0-.69-.04-1.03-.04-.33,0-17.06-.09-17.39-.11-.09,0-.2,0-.28-.04-.04.04-.07.07-.12.1-.14.1-.28.19-.41.29-.02.01-.05,0-.06-.01-.01-.02-.02-.04-.03-.06-.19-.18-.4-.38-.65-.44-.24-.06-.49.01-.72.09-.22.08-.44.16-.67.22-.36.12-.72.23-1.1.28-.54.06-1.08.04-1.61-.11-.17-.05-.38-.09-.58-.15-.09-.06-.17-.15-.27-.2-.02,0-.04,0-.05.03-.06.1-.17.17-.26.25-.08.07-.13.15-.2.23-.07.09-.14.17-.17.27,0,0,0,0,0-.01,0-.13-.02-.29-.06-.43,0,0,0,0,0,0-.08-.19-.16-.38-.24-.57-.03-.05-.05-.09-.07-.14-.42-.06-28.76.01-29.17,0-.47-.02-.88-.02-1.29,0-.11.01-.23.03-.34.05-.18.03-.36.07-.54.08-.17.01-.34-.02-.51-.05-.46-.08-.89.05-1.3.24-.36.17-.71.34-1.07.51-.38.18-.74.38-1.08.61-.26.18-.39.35-.38.68,0,.22.03.45,0,.68-.01.08-.03.2-.09.26,0,0,0,.01.01.02.02.03.07.03.11.03.55-.03,1.12.03,1.67.06-.46-.02-.9.08-1.34.14-.38.05-1.08-.02-.86.35.42.71.12,1.53.23,2.27.03.22-.07.67.08.87.02.03.1.06.14.06.29,0,.56-.02.83.03-.42.08-.93.1-1.18.32.12.29.23.58.23.91,0,.39-.07.77-.02,1.16.05,0,.11,0,.17,0,.13.02.26.04.4.06.25.03.79.06.76.08-.1.07-.22.07-.33.08-.19.02-.38.08-.57.14-.14.05-.28.1-.42.16.15.34.09.79.04,1.13-.06.43-.11.86-.06,1.28.34.41.65.83,1.01,1.21.42.46.85.91,1.29,1.34.42.42.85.83,1.32,1.19.15.11.29.21.45.32.27.13.53.19.8.22.29.07.6.1.88.1.44,0,.88-.09,1.32-.12.03,0,.06,0,.08,0,.4,0,28.78.05,29.21-.11.06,0,.12,0,.18.01.03,0,.06,0,.07-.03.08-.1.14-.23.2-.35,0-.02.02-.04.03-.06.03-.05.05-.1.08-.14.02,0,.04.01.04.03.06.25.18.45.32.65.12-.17.35-.11.55-.1.38.01.76.04,1.13,0,.37-.03.74-.13,1.11-.12.16,0,.32.01.48.02.2,0,.39.01.59.03.78.02,1.56,0,2.33,0h.04c.19.02,16.8.05,16.99.06.55.03,1.1.06,1.65.1.42.03.78.06,1.11-.19.11-.04.21-.11.3-.18.06-.04.15-.09.22-.11,0,.03.01.07.03.1.02.06.11,0,.12-.04.04-.12.09-.22.19-.31.01,0,.03,0,.04.02,0,.01,0,.03,0,.04.04.27.07.54.12.81.1.05.25.06.49.02.05,0,.09,0,.1,0,.39,0,.83.11,1.19.2.5.12,8.61.08,9.13.04.74-.05,1.48-.02,2.22,0,.1-.21.22-.4.32-.6.01-.03.06-.03.07,0,.06.12.06.25.07.39,0,.08.02.17.03.26.14.04.33-.01.47,0,.38.04.79-.05,1.17-.05.45,0,.84-.21,1.28-.22.15,0,.29.02.44.05,0,0,.02,0,.03.01.02,0,.04.02.06.02.06.03.12.07.16.12.01.02.04,0,.06,0,.19-.17.46-.26.67-.4.02-.01.04-.03.06-.04.03-.02.05-.03.08-.05.19-.13.36-.27.5-.41.26-.24.48-.51.69-.8.11-.16.23-.33.29-.52.03-.09.09-.19.08-.29,0-.04,0-.07,0-.1-.04-.04-.1-.06-.16-.08.09-.03.17-.07.22-.13-.06-.36-.1-.72-.12-1.08-.02-.27-.03-.54-.02-.81,0-.17.03-.35.01-.52-.12-.02-.23-.04-.35-.05-.17-.02-.34-.08-.51-.06-.05,0-.05-.07,0-.08.2-.06.41-.09.61-.15.1-.03.2-.08.29-.12-.03-.34.04-.71.08-1.04.03-.22.04-.46.07-.69,0-.72-.01-1.44.01-2.17-.04-.12-.1-.23-.15-.36Z"/>
      <path class="cls-1" d="M80.18,1.58c-.03-.12-.02-.22-.07-.32,0,0,.01,0,.02,0,.07.05.14.1.21.15,0,0,0,0,0,0,.13.21.16.46.16.7,0,.32-.24.48-.48.65,0,0,0,0,0,0,.26-.14.52-.26.59-.57.04-.15.04-.43-.03-.62.11.09.22.18.33.27.03.08.06.16.08.25.05.23-.05.4-.17.58-.02.03.02.04.04.02.11-.15.22-.3.21-.49,0-.08-.01-.17-.04-.25,0,0,0,0,0,0,.04.04.09.08.13.12.03.18.04.38.03.56,0,.24-.36.44-.54.56,0,0,0,.01,0,.01.21-.11.5-.25.6-.48.06-.14.08-.34.04-.53.14.13.28.28.41.42,0,.08.01.16.02.24,0,.21-.11.38-.24.54,0,0,0,.02,0,.01.12-.11.22-.22.29-.37.03-.06.05-.17.05-.28.03.04.07.07.1.11-.01.14-.02.28-.04.42-.02.16-.12.28-.24.38-.03.03-.1.11-.15.12-.01,0-.03.03,0,.03.06,0,.08-.03.13-.07.1-.07.2-.12.27-.22.1-.15.16-.36.15-.55.1.12.19.23.29.35.03.03.05.07.08.1-.04.1-.03.23-.06.34-.05.17-.16.43-.34.51,0,0,0,0,0,0,.16-.04.31-.23.38-.36.05-.09.1-.23.12-.35.08.11.16.23.23.34-.03.11-.04.21-.12.31-.05.07-.14.13-.21.18-.09.06-.15.14-.27.16,0,0,0,0,0,0,.1,0,.17-.04.25-.09.09-.05.18-.09.26-.17.07-.07.14-.17.18-.27.09.14.17.29.25.43,0,.05-.04.11-.06.15-.03.07-.09.17-.17.2,0,0-.02.03,0,.02.08,0,.17-.09.21-.15.02-.03.05-.07.08-.12.08.15.17.3.25.45-.03.04-.04.09-.07.14-.02.03-.08.05-.11.07-.05.03-.09.08-.15.09-.02,0-.03.04,0,.04.04,0,.08,0,.12-.03.05-.02.1-.04.15-.06.06-.03.09-.08.12-.14.03.08.07.15.09.23,0,.01-.02.02-.03.04-.02.02-.05.08-.08.08-.02,0-.04.03-.02.04.04.02.07,0,.1-.03.02,0,.04-.03.05-.05.02.05.03.11.04.16.05.11.1.22.16.33-.1-.05-.2-.1-.3-.14-.11-.08-.21-.16-.31-.24-.5-.4-1.02-.79-1.54-1.17-.47-.34-.95-.64-1.42-.96-.02-.01-.06-.04-.1-.06.06-.04.12-.09.17-.14.08-.08.18-.16.24-.27,0,0,0-.01,0,0-.06.08-.16.14-.24.2-.08.06-.16.12-.25.16-.09-.05-.19-.12-.3-.19,0,0,0,0,.01-.01.03-.03.07-.07.11-.08,0,0,.01-.02,0-.02-.04,0-.07.03-.1.04-.02,0-.05.02-.07.03-.03-.02-.05-.03-.08-.05h0c-.1-.07-.2-.13-.3-.2-.02-.01-.02-.03-.02-.05.09,0,.21-.05.26-.07.2-.05.38-.14.54-.27.16-.13.23-.33.24-.52,0-.12-.05-.24-.08-.35Z"/>
      <path class="cls-1" d="M64.2.55c.05.06.1.13.13.18.08.11.1.32.1.45,0,.02.02,0,.02,0,.03-.16.05-.33-.01-.49-.02-.05-.07-.09-.12-.13.09.02.19.03.28.05.03.06.06.12.07.2.03.14,0,.35-.07.47,0,.01,0,.01.01,0,.11-.15.18-.44.11-.65.2.04.4.07.59.09.19.02.38.02.57.01,0,.02.01.03.02.05,0,.03,0,.05,0,.08,0,.02,0,.04.01.06,0,.01.02,0,.02,0,.02-.06.03-.11.02-.17,0,0,0,0,0,0,.11,0,.23-.02.34-.03.02.03.03.05.05.08.02.06.03.13.04.19,0,.01.02,0,.02,0,0-.09.02-.19-.02-.28.01,0,.02,0,.04,0,.02.04.05.08.06.13.01.06.03.14.02.2,0,.01.01,0,.01,0,.03-.06.02-.15.02-.22,0-.04,0-.09-.02-.12.25-.04.5-.08.76-.12.35-.05,8.27-.1,8.62-.14.08.16.18.29.2.47,0,.02.03,0,.04-.01,0-.11-.01-.2-.05-.3-.02-.05-.04-.12-.07-.17.21-.03.43-.05.64-.08.08-.02.16-.04.23-.06.04.05.1.09.14.14.09.1.12.23.19.34.01.02.05,0,.04-.02-.04-.13-.03-.25-.12-.36-.03-.04-.06-.09-.11-.12.06-.02.12-.03.18-.04.05,0,.1-.01.16-.03.05.05.1.09.14.14.07.1.12.24.14.35,0,0,0,0,0,0,.01-.13-.01-.25-.07-.37-.03-.06-.08-.11-.13-.15h0s.02,0,.03,0c0,0,.02.02.02.03.02.02.04.05.06.08.04.05.07.1.1.16,0,.02.04,0,.03-.02-.02-.06-.05-.12-.09-.17-.01-.02-.03-.05-.04-.08.13,0,.27,0,.41.06,0,0,.01,0,.02,0,.11.17.13.42.11.61,0,0,.01,0,.01,0,.04-.12.08-.37.03-.55.04.01.07.03.11.05.05.22.06.47.02.72-.35-.21-1.18-.05-1.53-.01-.03-.05-.09-.09-.12-.12-.06-.06-.09-.16-.16-.2-.04-.03-.08.02-.09.05,0,.04,0,.07,0,.1,0,.04,0,.08,0,.13,0,.02,0,.05,0,.07-.28.02-.57.05-.85.09-.14.03-7.87.05-8.02.07-.09.02-.19.04-.28.06-.27.06-.54.15-.8.23-.09.03-.19.06-.28.08-.08-.01-.17-.02-.23-.02-.16,0-.14-.38-.13-.47,0-.07-.08-.03-.09,0-.06.14-.11.29-.16.43,0,.03-.03.06-.05.07-.08,0-.17-.01-.25-.02-.01,0-.02,0-.04,0-.28-.05-.69-.16-.98-.08,0-.06.05-.16.05-.19,0-.06.02-.12.02-.17,0-.1-.02-.19-.04-.29-.03-.11-.09-.21-.17-.29.04,0,.08.01.12.02Z"/>
      <path class="cls-1" d="M38.03,1.25s0,0,0,0c0-.01,0-.02,0-.03,0-.02-.01-.04-.02-.06,0-.02-.01-.03-.02-.05.09.03.17.05.26.08.1.18.23.42.1.61,0,0,0,0,0,0,.14-.17.08-.4,0-.59.12.03.24.06.36.08.02.09.12.16.14.26.02.1.05.28.01.37,0,0,0,0,0,0,.07-.08.06-.22.05-.32,0-.11-.03-.22-.1-.3.03,0,.05,0,.08,0,.02.03.04.05.06.1.03.09.05.17.06.26,0,.01.02,0,.02,0,0-.1,0-.19-.03-.28,0-.02,0-.04-.01-.06.21.02.42.02.65,0,.26-.03.51-.08.76-.15,0,.01.02.03.02.04.02.05.04.11.06.16.02.08,0,.17.03.25,0,0,.02,0,.02,0-.02-.11.03-.21,0-.33-.01-.04-.02-.09-.04-.13.06-.02.12-.04.19-.06.02.03.04.07.07.09.05.06.08.13.08.21,0,0,.02,0,.02,0,0-.07,0-.13-.03-.2-.01-.04-.03-.08-.06-.12.09-.03.17-.06.25-.09.26-.1.53-.2.8-.25.03,0,.06,0,.09-.01,0,.02,0,.04.02.05.12.04.15.23.18.34.02.1,0,.2.04.3,0,0,0,0,.01,0,0,0,.01,0,.02-.01,0,0,0,0,0,0-.01,0,0-.15,0-.18,0-.08,0-.16,0-.23,0-.08-.05-.19-.11-.25.1.01.19.05.29.1.03.06.05.12.08.17.05.1.02.22.07.32.01.02.05,0,.04-.03-.02-.06,0-.13,0-.19,0-.02,0-.04,0-.07,0,0,.02.01.03.02.05.08.1.17.15.26.04.12.06.25.08.37-.16-.14-.42-.16-.61-.14-.43.05-.87.11-1.29.24-.16.05-.38.09-.53.17-.29.15-.26-.23-.43-.28-.06-.01-.1.01-.13.06-.04.05-.08.22-.15.22-.2.01-.37.1-.57.13-.39.06-.84.1-1.24.09,0-.02.02-.04.02-.06.16-.27.23-.57.17-.84Z"/>
      <path class="cls-1" d="M1.36,1.69s.04-.02.06-.03c.15,0,.28,0,.43.04.13.03.38.13.36.3,0,0,0,0,.01,0,.08-.28-.29-.43-.6-.45.04-.02.07-.03.11-.05.1.01.19.02.29.03.17.02.31.05.46.14.01,0,.03-.02.02-.03-.12-.1-.22-.16-.37-.22-.04-.01-.09-.03-.14-.04.11-.05.22-.09.34-.14.05-.02.09-.04.14-.07.02,0,.04,0,.06.02.04.02.09.03.13.05.1.03.2.05.3.09,0,0,.02,0,.01-.01-.09-.06-.19-.11-.29-.17-.02-.02-.05-.03-.07-.04.07-.03.13-.06.2-.09.04.01.09.02.13.03.04,0,.08,0,.12.01.03,0,.06.02.09.02,0,0,.02-.01,0-.02-.02,0-.04-.03-.06-.04-.04-.01-.07-.03-.11-.05-.02,0-.04-.02-.05-.02.07-.03.14-.07.22-.1,0,0,0,0,.01,0,0,0,.01,0,.02,0,.03,0,.05,0,.08,0,.05,0,.1.02.16,0,0,0,.02-.03,0-.02-.05,0-.1-.03-.15-.05,0,0,0,0,0,0,.07-.04.15-.08.24-.12.02,0,.04,0,.06,0,.09.01.18,0,.27,0,0,0,.03-.02.01-.03-.05-.01-.1-.03-.15-.04.02,0,.05-.01.07-.02h.02s.01,0,.02,0c.02,0,.04,0,.05.01.06,0,.11,0,.17,0-.09.07-.19.14-.26.2-.25.21-.46.43-.68.68-.17.2-.34.4-.49.61-.09.12-.23.59-.35.29-.05-.13-.35-.33-.47-.39-.21-.11-.41-.16-.64-.12-.02,0-.04,0-.05.02.08-.07.17-.13.27-.19Z"/>
      <path class="cls-1" d="M6.1,16.67c-.21-.02-.43-.03-.64-.05,0-.02.01-.05.02-.07.02-.04-.04-.04-.05-.01-.01.02-.03.05-.03.08-.06,0-.12-.01-.19-.02,0,0,0,0,0,0,.01-.02.02-.05.03-.08,0-.03.02-.05.03-.08,0-.02-.02-.02-.03,0-.03.05-.07.11-.11.16h0c-.07-.01-.14-.02-.22-.04.01-.02.02-.04.03-.06.04-.06.08-.13.12-.2,0-.02,0-.02-.02,0-.04.05-.08.09-.12.14-.03.04-.06.07-.09.1h0c-.17-.05-.33-.12-.49-.21.03-.03.06-.05.09-.07.04-.04.07-.08.1-.13.06-.08.11-.15.13-.25,0-.01-.01,0-.02,0-.05.11-.13.18-.22.26-.05.05-.12.09-.17.15-.02-.01-.05-.03-.07-.04.03-.02.05-.05.07-.07.03-.04.06-.08.09-.11,0,0,0-.02,0-.01-.04.03-.07.06-.11.1-.03.02-.06.05-.08.08-.17-.11-.33-.24-.49-.37.09-.02.2-.09.25-.14.06-.05.1-.11.14-.17.05-.07.11-.14.15-.22,0-.01,0-.02-.02-.01-.08.1-.18.22-.28.3-.1.08-.23.09-.32.17-.05-.04-.1-.09-.14-.13.08-.03.15-.09.23-.15.1-.08.22-.18.28-.3,0,0,0-.01,0,0-.06.08-.16.14-.24.19-.1.07-.2.13-.32.16,0,0-.02,0-.02.02-.01-.01-.03-.03-.04-.04.04-.02.07-.05.1-.07.09-.07.17-.13.24-.22,0,0,0-.02,0-.01-.07.06-.14.12-.23.15-.05.02-.11.05-.16.08-.11-.11-.22-.21-.32-.31.1-.05.22-.17.27-.2.14-.11.32-.27.38-.45,0-.01-.01-.01-.02,0-.08.17-.29.3-.43.4-.07.05-.19.12-.26.18-.03-.03-.05-.05-.08-.08.04-.02.08-.05.11-.08.06-.06.12-.1.17-.17,0,0,0-.02,0-.01-.1.08-.21.15-.32.21-.13-.13-.27-.27-.4-.4.08-.02.15-.05.21-.08.18-.11.35-.23.46-.41,0,0,0-.01-.01,0-.18.22-.47.35-.75.41-.03-.03-.05-.06-.08-.09.04-.02.08-.04.12-.06.06-.04.13-.05.2-.1.05-.04.1-.09.15-.13,0,0,0,0,0,0-.16.11-.35.16-.53.23-.05-.05-.1-.11-.15-.16.09-.03.17-.11.22-.17,0,0,0-.01,0,0-.06.03-.12.06-.18.07-.03,0-.08,0-.12.02-.09-.1-.19-.2-.28-.3.22.02.54-.08.66-.16.3-.18.5-.51.56-.85,0,0-.01,0-.02,0-.09.29-.28.52-.51.72-.11.09-.33.12-.47.15-.08.01-.23.04-.33.03-.04-.04-.08-.09-.12-.13,0,0-.01-.01-.02-.02.09.01.2,0,.27-.02.21-.05.38-.17.54-.31,0,0,0-.01,0,0-.26.14-.58.24-.88.26-.07-.09-.14-.19-.21-.29.6.06,1.17-.27,1.28-.9,0,0,0,0,0,0-.19.62-.75.77-1.32.83-.04-.05-.08-.09-.12-.13.2.04.44,0,.6-.06.2-.06.42-.21.52-.39,0-.02-.01-.02-.02,0-.14.19-.36.25-.57.31-.11.03-.23.04-.35.04-.09,0-.17.04-.27.04-.03-.03-.07-.06-.09-.1,0,0,0,0,0,0,.22.03.5-.04.64-.1.4-.16.58-.43.77-.8.08-.16.26-.39.35-.62.15.55.52,1.71.56,1.84.08.27.11.63.25.87.08.13.29.23.4.33.16.14.31.29.45.45.26.28.38.73.6,1.05.18.27.47.49.75.67.26.17.54.21.82.27-.06,0-.12,0-.18.01h0Z"/>
      <path class="cls-1" d="M63.98,15.79c-.02.18-.1.33-.21.48,0,0,0,0-.01.02.15-.3.15-.65-.14-.91,0,0-.02,0-.01.01.11.18.15.43.12.64-.03.18-.16.31-.24.47-.15.07-.32.09-.49.1.01-.02.02-.04.03-.06.05-.09.07-.19.09-.29,0-.02-.02,0-.03,0-.04.08-.07.16-.12.23-.02.04-.05.08-.08.12-.02,0-.03,0-.05,0-.07,0-.15,0-.22,0,.08-.1.14-.24.18-.35.08-.21-.06-.46-.16-.63,0,0,0,0,0,0,.07.2.13.41.07.62-.04.13-.12.24-.19.35-.28-.01-.56-.05-.83-.08.02-.04.03-.09.04-.13.02-.09.02-.18-.01-.28,0,0,0,0,0,0,0,.11-.02.21-.06.31-.01.03-.03.07-.04.1-.04,0-.08,0-.12,0,.03,0,.06,0,.09-.01-.1-.01-.21-.02-.31-.03,0,0,0,0-.01,0,.02-.06.04-.12.03-.17-.02-.17-.11-.33-.17-.49,0-.02-.03,0-.03.02.02.11.04.21.05.32.01.09,0,.19-.03.28,0,0,0,.02,0,.03-.25-.02-16.92-.03-17.17-.03.05-.14.07-.32.02-.44,0-.01-.02,0-.02.01.01.12-.04.22-.08.33,0,.03-.03.07-.05.1-.08,0-.16.01-.24.02.14-.3.1-.63-.11-.9,0,0-.02,0-.02.02.12.27.15.62,0,.89-.21.01-.41.02-.61.03h0s.08-.11.09-.15c.05-.16.01-.3-.03-.46,0-.02-.03,0-.03.01,0,.14.03.27-.03.4-.03.07-.09.13-.13.19-.09,0-.19,0-.28,0,.24-.19.18-.6.03-.83,0,0-.02,0-.02.01.06.17.06.36.02.53-.03.1-.09.18-.12.28-.03,0-.05,0-.08,0h0s.03-.06.04-.1c.02-.07.03-.15.02-.22,0,0-.01,0-.01,0-.02.1-.06.19-.12.27,0,.01-.02.03-.03.04-.11,0-.23-.02-.34-.03.06-.1.1-.23.12-.34.03-.17-.08-.35-.16-.49,0,0-.01,0-.01,0,.04.15.08.3.06.45-.01.12-.08.24-.12.36-.07,0-.15-.01-.22-.02.02-.05.04-.09.05-.14.02-.08.03-.16.02-.24,0-.01-.02,0-.02,0-.02.09-.06.17-.09.26-.02.03-.04.07-.07.1-.14-.01-.28-.02-.43-.03.04-.05.06-.1.08-.15.08-.24.04-.45-.13-.65,0,0-.01,0,0,0,.11.19.12.36.05.57-.02.06-.05.14-.09.21,0,0-.01,0-.02,0-.03,0-.05,0-.08,0,.01-.02.02-.04.03-.06.04-.09.1-.17.08-.27,0,0-.01,0-.01,0,0,.11-.08.19-.14.27-.02.02-.04.04-.06.06-.08,0-.16.02-.24.03.16-.16.27-.38.26-.63,0-.22-.12-.38-.28-.43.25-.07.56,0,.8-.02.34-.01.67.06,1.01.04.75-.04,17.89.15,18.64.11.04,0,.07,0,.1,0,.08.03.15.08.2.13,0,.01.02.02.02.03,0,0,.01.01.02.02.05.06.09.13.12.22.02.06.1-.02.11-.05.02-.11,0-.36.08-.36.23,0,.48-.03.7-.08.06-.01.12-.03.19-.04.08-.01.16-.02.25-.04.1-.02.2-.04.3-.06.02,0,.05,0,.08-.01.02,0,.07-.01.14-.03.09-.02.19-.04.29-.05.05-.02.1-.04.15-.05.03,0,.06,0,.08-.01.02,0,.04,0,.06,0,0,0,.01,0,.02,0,0,0,0,0,0,0,.03.02.05.12.07.16.04.07.05.15.1.23.01.03.03.05.04.08.01.08.02.16.02.24Z"/>
      <path class="cls-1" d="M84.07,14.92c-.09.23-.22.45-.38.64,0,0,0,0,0,0-.02-.01-.02-.03-.04-.04-.02-.02-.04-.04-.06-.06,0,0-.03,0-.02.02.01.02.03.05.04.07,0,.02,0,.04.02.06,0,0,0,0,.02.01-.05.06-.11.12-.16.18,0-.03-.02-.05-.03-.07-.04-.06-.1-.11-.17-.15,0,0-.02,0-.01.01.04.05.09.11.11.18.01.04,0,.08,0,.12-.05.05-.11.1-.17.15,0-.03-.02-.05-.03-.07-.02-.06-.06-.11-.11-.15,0,0-.01,0,0,0,.04.05.05.11.06.18,0,.03,0,.08,0,.11-.02.02-.04.04-.06.05-.04.03-.08.07-.12.1,0-.05,0-.11-.03-.15-.06-.09-.14-.14-.24-.2,0,0-.01,0,0,0,.07.09.12.17.14.28,0,.04,0,.1,0,.15-.06.04-.11.08-.17.12-.02.02-.04.03-.06.05.01-.05.02-.11.01-.15-.02-.07-.08-.16-.13-.21,0,0-.02,0-.01.01.04.07.07.18.07.25,0,.06-.04.11-.03.17-.02.01-.04.03-.06.05-.04.03-.07.05-.11.07.04-.11.06-.22.03-.35-.04-.17-.2-.24-.34-.31,0,0,0,0,0,0,.1.1.17.19.21.33.04.12.03.24.02.36-.06.03-.12.06-.18.08.02-.16.01-.34-.1-.47-.07-.07-.39-.43-.5-.41.33-.09.67-.09,1.01-.13.26-.03.47-.16.69-.3.29-.19.6-.36.87-.58.03-.02.05-.05.07-.07,0,.01,0,.03-.01.04Z"/>
      <path class="cls-1" d="M84.12,7.82c-.02.13-.02.26-.02.39-.01.62,0,1.24,0,1.86,0,.43,0,.87,0,1.3-.24.08-.47.17-.71.26-.13.04-.26.04-.36.14-.03.03-.06.11,0,.13.28.09.58.08.86.11.11,0,.16.04.16.19,0,.4.05.8.07,1.2.01.23.03.46.04.69v.05s0,.03,0,.04c-.01,0-.03.02-.04.03-.01.01-.03.03-.04.04.02-.03-.04.02-.04.02-.09.05-.19.09-.29.11-.03,0-.06.04-.06.08,0,.04.04.06.08.05,0,0,.02,0,.03,0,.02.02.04.03.06.04.07.05.14.16.23.15-.06.2-.28.28-.44.38-.31.2-.62.41-.95.58-.15.08-.43.06-.62.08-.17.02-.35.08-.52.12-.08.02-.2.05-.23.13,0,0,0,.02,0,.03.15.1.29.15.41.29.14.18.18.34.17.55-.03,0-.06,0-.09-.01-.03,0-.07,0-.1,0-.12-.03-.23-.06-.36-.09-.24-.05-.47.03-.7.1-.39.12-.79.16-1.2.2-.23.02-.46.04-.7.04-.12,0-.32.05-.43-.02-.04-.03-.05-.1-.06-.17-.02-.05-.03-.12-.04-.2-.03-.14-.07-.28-.1-.43-.02,0-.04.01-.05.03-.13.15-.2.34-.27.52-.03.07-.08.12-.15.15-.79-.04-1.59-.07-2.39-.04-.86.04-9.19-.17-10.04-.19-.09,0-.16,0-.22-.02-.26-.12-.29-.26-.31-.41.01-.12,0-.24-.03-.35-.02-.09-.09-.16-.07-.26,0-.05.02-.09.02-.14-.01-.08-.11-.03-.13.01-.06.09-.09.2-.15.29-.04.05-.07.11-.1.16,0,0,0,0,0,0,0-.06-.01-.12-.02-.17-.01-.07-.01-.13-.03-.2,0-.01,0-.03-.01-.04,0-.08-.02-.17-.04-.25-.03-.05-.05-.11-.08-.16,0-.02-.01-.05-.03-.07-.04-.08-.05-.18-.1-.26,0-.02-.03-.03-.05-.02-.11.03-.21.08-.32.13-.01,0-.02,0-.03,0-.23.04-.47.07-.7.11-.04,0-.08,0-.11.01-.16.02-.31.06-.47.09-.1.01-.2.03-.3.04-.18.02-.37.04-.55.05-.04.08-.07.17-.08.27,0,.03-.02.04-.04.04-.06-.11-.14-.2-.21-.31-.04-.07-.16-.02-.26.02-.16,0-16.75,0-16.92-.01-.78-.04-1.57-.1-2.35-.16-.37-.03-.75-.07-1.12,0-.04,0-.08.02-.12.03-.05.03-.1.07-.14.11-.08.07-.16.16-.21.26-.06.14-.03.25,0,.37.02,0,.04,0,.05-.02.13-.1.35-.12.52-.12,0,.09-.04.2-.11.31-.11.19-.36.22-.54.27-.29.06-.58.04-.88.03-.35-.01-.69-.03-1.04-.03-.13,0-.23,0-.36.02h0s-.03-.05-.05-.07c-.14-.2-.1-.47-.1-.69,0-.11-.13-.04-.14.03-.04.26-.2.46-.31.68-.04.07-.06.12-.07.15-.2.04-.41.05-.61.07-.09,0-.19.02-.28.03-.4,0-28.58.01-28.98.03-.62-.03-1.28-.2-1.76-.58-.58-.46-.71-1.18-1.21-1.68-.07-.07-.18-.15-.29-.24-.04-.02-.08-.05-.13-.07-.34-.18-.38-.59-.48-.93-.21-.68-.28-1.49-.63-2.13-.01-.02-.03-.04-.04-.05,0,0,0-.01,0-.02-.01-.02-.02-.04-.03-.05-.25.02-.51.08-.74.16-.26.08-.44.3-.65.45-.03.02-.06.08-.01.1.1.04.47.01.49.1.03.16.12.31.24.41-.1.12-.22.21-.38.27-.29.11-.69.18-.87-.02,0-.02-.01-.04-.02-.07-.01-.2-.03-.39-.03-.59,0-.36.08-.71.12-1.08.01-.14.16-.3.02-.44,0,0,0,0-.01-.01.15-.04.31-.09.45-.14.21-.08.66-.1.81-.29.03-.04.05-.11-.02-.12-.2-.03-1.33-.05-1.32-.15.01-.11.02-.21.03-.32-.04-.24-.06-.49-.05-.73,0-.31-.04-.58-.21-.85-.01-.02,0-.05.03-.06.25-.08.51-.05.76-.13.18-.06.36-.12.53-.2,0,0,0,0-.02,0-.22-.08-.36-.1-.62-.1-.48,0-.4-.13-.46-.37-.07-.26-.05-.57-.06-.84-.01-.26.08-.53.06-.79-.01-.12-.14-1.21-.2-1.21.44-.02.9-.15,1.32-.22.3-.05.6-.06.89-.12.04,0,.07-.05.01-.06-.59-.06-1.2-.16-1.79-.18-.03,0-.03-.17-.03-.34.04-.2.07-.41.09-.62.16-.22.37-.35.74-.21.15.06.29.17.43.26.17.1.19.19.26.36,0,.02.03.01.04,0,.13-.07.18-.21.25-.33.15-.28.49-.51.69-.75.16-.18.31-.36.45-.55.14-.18.33-.31.49-.46.17.01.35.03.53.02.51-.02.95-.19,1.47-.2.16,0,29.98.06,29.97.04.06.21.11.49.26.72.09.16.04.38.16.54.02.03.06-.02.07-.03.13-.32.38-.5.57-.78.06-.02.13,0,.22.05.04.03.08.05.11.08.1.09.19.2.2.22.04.08.07.16.08.24-.04,0-.09.03-.12.04-.07.02-.16,0-.21.07-.06.1,0,.21.02.31.03.09.07.26.15.32,0,0,0,0,0,0,0,0,0,0,.01,0,0,0,0,0,0,0,.01,0,.03,0,.04,0,.07,0,.14,0,.21,0,.23.02.46.04.68.04.02,0,.03,0,.05,0,.17-.02.33-.05.49-.07.11-.02.23-.08.34-.11.06-.02.16,0,.22-.03.03-.1.09-.18.12-.28.01-.05.08-.04.08,0,0,.09.06.19.11.27.17.09.41-.04.6-.11.35-.13.69-.21,1.06-.26.42-.05.81-.2,1.07.24h0c.06-.05.12-.1.17-.16.12-.18.15-.42.05-.6,0,0,0,0,0,0,.05-.04.1-.08.15-.12,0,0,.02,0,.02-.02,0,0,0,0,0,0,.02-.02.04-.04.06-.05.05-.04.09-.07.14-.1,0,0,.01,0,.02-.01.33.08,18.06.15,18.2.17.38.05.76.06,1.16.07.1.18.21.36.26.55,0,.03.02.04.04.05.23-.22.17-.62.23-.9.05-.23.22-.26.44-.24.55.04.45.55.34.98.31,0,.62,0,.92.05.17.03.36.14.53.13,0,0,.01,0,.02,0,.04-.11.09-.21.12-.32,0-.04.07-.04.08,0,.03.08.06.16.1.24.15-.01.3-.02.46-.06.16-.04.31-.08.46-.12.33-.09,8.25-.17,8.59-.24.32-.06.64-.09.96-.11.04,0,.08,0,.12-.01,0-.03,0-.07,0-.1h0s0-.01,0-.02c0-.05,0-.11,0-.16,0-.04.06-.04.08-.01.05.09.11.18.16.27.04,0,.09,0,.13,0,.14-.01.29-.05.43-.06.23-.02.46-.03.69-.01.13.01.22.05.3.15,0,0,0,0,0,0h0s0,0,0,0c.02.02.05.04.08.07.02-.06.05-.12.07-.18,0-.06,0-.13.01-.19h0c.06-.04.15-.04.25-.03.16,0,.32.04.48.06.2.03.41.05.58.16.06.04.1.09.13.14,0,0,0,0,0,.01,0,0,0,0,0,0,0,.01.02.03.02.04.04.08.07.17.11.27.07.18.05.39-.01.58,0,.03-.05.04-.07.02-.12-.13-.24-.25-.32-.4-.21.14-.38.34-.49.57-.08.18-.14.47.04.61.04.03.07.06.1.09.09.04.17.09.25.14.1.07.2.15.29.23.36.24.71.48,1.07.73.62.42,1.22.86,1.83,1.29.02.01.03.02.04.03.06.04.12.08.19.12.23.15.45.3.66.46.17.13.35.25.46.43,0,0,0,0,0,.01,0,0,.01.02.02.03.01.02,0,.05-.03.06-.44.13-.91.13-1.36.22.15.03.31.04.46.06.31.04.66.02.95.14.03.01.04.05.02.07-.02.02-.16.14-.27.23.04.04.1.08.13.11.07.06.11.12.15.2.03.07.02.15,0,.22Z"/>
    </g>
  </g>
</svg>