<svg width="33" height="34" viewBox="0 0 33 34" fill="none" xmlns="http://www.w3.org/2000/svg">
<path d="M5.32863 6.11665C4.95346 5.89596 4.56174 5.74148 4.25277 5.48217C2.93416 4.37873 3.34243 1.99529 4.93139 1.4215C6.02931 1.02426 7.27621 1.69185 7.48034 2.78977C7.55207 3.15943 7.36448 3.43529 7.03897 3.43529C6.80724 3.43529 6.63069 3.31942 6.61414 3.0877C6.57 2.58012 6.27207 2.34288 5.80863 2.24908C5.32863 2.15529 4.91484 2.32633 4.65553 2.71253C4.12588 3.51253 4.35208 4.60494 5.14656 5.01873C5.66518 5.28907 6.19483 5.25045 6.71897 5.02976C9.32861 3.9208 11.9438 2.81184 14.5479 1.69185C14.6417 1.65323 14.73 1.52081 14.7631 1.41598C15.0279 0.621506 15.6624 0.0697846 16.4348 0.00909523C17.301 -0.0626286 17.952 0.290473 18.3768 1.04633C18.432 1.14012 18.4872 1.24495 18.4982 1.34978C18.5368 1.65323 18.7244 1.78012 18.9893 1.89598C21.4334 2.92218 23.8775 3.96494 26.3161 5.00769C27.0609 5.32769 27.7837 5.2339 28.3023 4.77045C28.9313 4.21321 28.7271 2.8615 28.2251 2.46426C27.8058 2.12771 27.1106 2.13322 26.7354 2.51943C26.6251 2.63529 26.5589 2.81184 26.5203 2.97736C26.443 3.29736 26.2775 3.46287 26.0016 3.42977C25.7368 3.40218 25.5878 3.18701 25.6044 2.86701C25.6541 2.11667 26.3492 1.43805 27.1823 1.33323C28.2361 1.20081 29.0637 1.7084 29.4278 2.7015C29.8858 3.9539 29.5051 5.16217 28.4568 5.75252C28.2361 5.87941 27.9878 5.95665 27.734 6.067C28.1202 6.73458 28.512 7.39665 28.8982 8.06423C29.963 9.89043 31.0333 11.7111 32.0926 13.5373C32.1368 13.6145 32.1809 13.7083 32.1809 13.7911C32.1754 14.5966 32.2582 15.4076 32.054 16.2076C31.5851 18.0173 29.9409 19.3414 28.0761 19.3745C27.3865 19.3856 26.6913 19.4131 26.0127 19.3193C24.0651 19.049 22.5644 17.3883 22.443 15.4352C22.4099 14.9221 22.421 14.4035 22.432 13.8904C22.432 13.7635 22.4927 13.6201 22.5589 13.5042C23.9272 11.1539 25.2954 8.80354 26.6692 6.45872C26.7354 6.34286 26.8071 6.22148 26.8678 6.11114C25.6872 5.81321 24.6278 5.25045 23.5244 4.79252C21.8527 4.10287 20.192 3.38011 18.4982 2.65736C18.1286 3.4408 17.5327 3.93184 16.6389 3.91528C15.7451 3.90425 15.1493 3.41873 14.7907 2.58563C14.2279 2.82288 13.6762 3.06012 13.1189 3.29184C11.1327 4.13597 9.14654 4.98562 7.16034 5.81872C6.87345 5.9401 6.57 6.00631 6.23897 6.11114C6.38242 6.36493 6.53138 6.63527 6.68586 6.89458C7.96586 9.08491 9.24585 11.2697 10.5258 13.4601C10.5865 13.5704 10.6583 13.6973 10.6527 13.8187C10.6472 14.4973 10.6803 15.187 10.5865 15.8545C10.3383 17.6807 8.72172 19.22 6.87345 19.3414C5.97966 19.4021 5.05277 19.4242 4.18656 19.2366C2.20588 18.8118 0.953476 17.1732 0.898304 15.1483C0.898304 15.1373 0.898304 15.1318 0.898304 15.1207C0.798994 14.2159 1.01968 13.4214 1.51072 12.627C2.79071 10.558 3.98243 8.43388 5.21277 6.33182C5.26242 6.24907 5.30656 6.16079 5.32863 6.11665ZM2.16175 13.3497H9.4224C8.20862 11.2697 7.01138 9.22285 5.79207 7.13734C4.57277 9.22285 3.38105 11.2642 2.16175 13.3497ZM27.3147 7.13734C26.0954 9.22836 24.8982 11.2752 23.6899 13.3442H30.9451C29.7313 11.2697 28.5396 9.22836 27.3203 7.13734H27.3147Z" fill="#F8DAA7"/>
<path d="M7.04884 31.5012C5.60884 30.0612 4.17989 28.6322 2.73438 27.1867C2.95506 27.0157 3.18127 26.8336 3.41299 26.6571C4.17437 26.0612 4.93023 25.4654 5.69712 24.875C6.99918 23.8709 8.4778 23.4571 10.1109 23.5729C11.8047 23.6943 13.504 23.8157 15.1978 23.9481C15.6557 23.9812 16.1081 24.0529 16.566 24.1136C17.024 24.1743 17.2667 24.4778 17.4212 24.8805C17.5702 25.2778 17.4984 25.6419 17.2281 25.9619C16.8695 26.3867 16.3619 26.5357 15.8488 26.6516C14.2543 27.0157 12.6378 27.2529 10.9992 27.3688C10.9716 27.3688 10.944 27.3688 10.9164 27.3688C10.635 27.4019 10.464 27.584 10.475 27.8378C10.4861 28.0971 10.6626 28.2736 10.955 28.2515C11.6336 28.2019 12.3123 28.1633 12.9854 28.064C14.0557 27.8984 15.1205 27.6998 16.1798 27.4847C16.9578 27.3247 17.6419 26.9991 18.0998 26.304C18.1329 26.2543 18.2377 26.2157 18.304 26.2267C19.6446 26.4198 20.897 26.1605 22.0888 25.5371C23.6667 24.7095 25.2446 23.8819 26.817 23.0488C27.3301 22.7785 27.9205 22.9109 28.2074 23.3578C28.5329 23.8654 28.428 24.4557 27.926 24.8198C26.8115 25.6254 25.686 26.4253 24.566 27.2253C23.4846 27.9978 22.3977 28.7757 21.3108 29.5481C20.395 30.1936 19.3743 30.4971 18.2543 30.4805C15.9867 30.4474 13.7136 30.4253 11.4461 30.4033C9.5371 30.3812 8.70952 30.5908 7.04884 31.5012Z" fill="#F8DAA7"/>
<path d="M15.9727 4.74805H17.5616C17.5616 4.78667 17.5782 4.88046 17.5782 4.97425C17.5782 10.177 17.5782 15.3797 17.5837 20.5825C17.5837 20.8362 17.512 20.9135 17.2582 20.9025C16.8389 20.8804 16.414 20.8969 15.9782 20.8969V4.74805H15.9727Z" fill="#F8DAA7"/>
<path d="M22.4532 24.301C21.2008 25.0679 19.9098 25.57 18.4422 25.3272C18.365 25.0127 18.3264 24.7038 18.216 24.4279C17.9015 23.6776 17.3333 23.2472 16.5167 23.17C15.0602 23.0321 13.6091 22.8996 12.125 22.7617C12.1747 22.7065 12.2133 22.6514 12.2629 22.6072C12.9084 22.0721 13.6367 21.7852 14.4864 21.7962C16.0698 21.8128 17.6477 21.7962 19.2312 21.8017C20.6822 21.8128 22.1222 22.9328 22.4587 24.2955L22.4532 24.301Z" fill="#F8DAA7"/>
<path d="M5.74204 33.9949C5.30618 33.9949 5.03584 33.8404 4.80412 33.6032C3.54067 32.3342 2.27171 31.0653 1.00275 29.7963C0.776548 29.5701 0.544825 29.3439 0.318619 29.1122C-0.106206 28.6653 -0.106206 28.0308 0.318619 27.6005C0.737928 27.1701 1.37792 27.1536 1.82482 27.6005C3.3586 29.1232 4.88687 30.6515 6.40963 32.1798C6.74618 32.5163 6.8179 32.9577 6.61928 33.377C6.43169 33.7798 6.10066 33.9839 5.74756 34.0004L5.74204 33.9949Z" fill="#F8DAA7"/>
</svg>
