<svg width="469" height="224" viewBox="0 0 469 224" fill="none" xmlns="http://www.w3.org/2000/svg">
<path d="M0.4375 105.757L200.19 204.378C254.225 230.952 362.088 249.939 361.261 113.286C361.261 64.7432 345.021 6.54484 336.901 -16.4865M0.4375 90.993L200.19 189.614C254.225 216.189 372.777 232.281 372.777 111.957C372.777 63.4145 361.114 6.24957 352.994 -16.7817M3.2426 72.2431L202.7 168.797C256.735 195.372 377.501 233.315 383.702 94.241C385.864 45.7462 377.058 6.54484 368.938 -16.4865M5.45714 52.1646L183.212 144.437C237.247 171.012 390.032 206.74 394.922 97.0461C397.085 48.5513 391.822 6.54484 383.702 -16.4865M7.37642 34.3005L185.131 126.573C239.166 153.148 398.909 198.62 406.438 79.4773C409.5 31.0311 404.076 5.9543 398.909 -15.6006M11.6579 17.1747L191.479 111.957C245.514 138.532 403.711 168.207 415.592 80.0679C421.94 32.9718 417.363 6.54484 413.525 -15.6006M17.711 1.96811L197.532 96.7508C251.567 123.325 407.914 160.825 426.812 63.0897C433.461 28.703 431.093 6.54484 427.993 -15.8959M31.5888 -9.54755L208.605 83.0206C262.643 106.873 416.498 141.986 435.396 54.2612C442.045 23.3967 442.166 2.70629 440.542 -16.3388M46.7954 -14.4196L223.377 73.1641C277.418 94.6506 427.696 123.215 446.595 44.1922C453.245 16.3895 455.325 0.344106 455.325 -16.3388M71.0078 -16.7817L239.322 66.2259C293.362 86.0467 420.704 105.463 455.601 38.7296C464.016 22.6372 469.331 1.40638 467.707 -14.4196" stroke="url(#paint0_linear_1695_1237)" stroke-width="0.590546"/>
<defs>
<linearGradient id="paint0_linear_1695_1237" x1="174.649" y1="-8.21882" x2="341.035" y2="136.613" gradientUnits="userSpaceOnUse">
<stop stop-color="#3E1802"/>
<stop offset="0.373261" stop-color="#D3A86A"/>
<stop offset="1" stop-color="#8E6542"/>
</linearGradient>
</defs>
</svg>
