<svg width="73" height="75" viewBox="0 0 73 75" fill="none" xmlns="http://www.w3.org/2000/svg">
<path d="M39.3873 36.9961H33.0712C32.7984 36.9961 32.56 37.1997 32.5041 37.4803L31.8157 40.9453H40.6428L39.9544 37.4802C39.8985 37.1997 39.6601 36.9961 39.3873 36.9961Z" fill="#D7B687"/>
<path d="M41.8805 40.945H44.8571L44.0009 36.6358C43.5551 34.3927 41.6146 32.7646 39.3865 32.7646H33.0705C30.8424 32.7646 28.9019 34.3928 28.4559 36.6359L27.5999 40.945H30.5765L31.312 37.2431C31.4804 36.3959 32.2199 35.7811 33.0705 35.7811H39.3865C40.2371 35.7811 40.9767 36.3959 41.145 37.243L41.8805 40.945Z" fill="#D7B687"/>
<path d="M36.2298 11.1029C38.1095 11.1029 39.6975 8.56068 39.6975 5.55139C39.6975 2.54209 38.1095 0 36.2298 0C34.3501 0 32.7622 2.54224 32.7622 5.55154C32.7622 8.56083 34.3501 11.1029 36.2298 11.1029Z" fill="#D7B687"/>
<path d="M33.7728 11.3363L33.2593 15.2819H39.2103L38.6968 11.3362C37.9856 11.9602 37.1444 12.3175 36.2347 12.3175C35.325 12.3177 34.484 11.9604 33.7728 11.3363Z" fill="#D7B687"/>
<path d="M48.4761 6.58117C50.4906 6.79952 52.033 7.7596 53.6658 8.77616C55.809 10.1104 58.0253 11.49 61.7089 11.49C65.5966 11.49 68.2583 10.2106 69.7384 9.21771C67.5772 9.32354 64.017 9.35056 61.2759 8.64375C59.2077 8.1105 57.5625 6.75473 55.9714 5.44344C54.291 4.05852 52.5532 2.62653 50.3037 2.15492C46.7453 1.40863 42.1812 2.61757 40.6095 3.09207C40.8089 3.85126 40.9186 4.67924 40.9186 5.5514C40.9186 6.58892 40.7639 7.56418 40.4868 8.43467C42.3532 7.49813 45.4816 6.25715 48.4761 6.58117Z" fill="#D7B687"/>
<path d="M33.9954 62.5962C33.9954 63.2781 34.55 63.8329 35.2319 63.8329H37.2336C37.9154 63.8329 38.4702 63.2782 38.4702 62.5962V59.2322H33.9955V62.5962H33.9954Z" fill="#D7B687"/>
<path d="M38.4701 56.2451C38.4701 55.5634 37.9154 55.0085 37.2335 55.0085H35.2319C34.5502 55.0085 33.9954 55.5632 33.9954 56.2451V58.0177H38.4701V56.2451Z" fill="#D7B687"/>
<path d="M47.7038 58.0171C49.6308 58.0171 51.3507 56.6881 51.8859 54.7852L55.3243 42.5617C54.9446 42.3077 54.4939 42.1597 54.014 42.1597H18.4609C17.9809 42.1597 17.5304 42.3077 17.1506 42.5617L20.5889 54.7852C21.1243 56.6881 22.8441 58.0171 24.7711 58.0171H32.7855V56.2446C32.7855 54.893 33.8851 53.7933 35.2368 53.7933H37.2385C38.59 53.7933 39.6898 54.8929 39.6898 56.2446V58.0171H47.7038Z" fill="#D7B687"/>
<path d="M56.4199 44.4669C56.4009 44.2068 56.3412 43.9589 56.2504 43.7274L53.0475 55.1142C52.3656 57.5387 50.165 59.2319 47.6961 59.2319H39.6817V62.5959C39.6817 63.9475 38.5821 65.0473 37.2305 65.0473H35.2288C33.8772 65.0473 32.7775 63.9477 32.7775 62.5959V59.2319H24.7631C22.2942 59.2319 20.0936 57.5387 19.4115 55.1142L16.2086 43.7273C16.1178 43.9588 16.0582 44.2067 16.0392 44.4669L14.0695 71.4156C14.0181 72.1206 14.2609 72.8178 14.7357 73.3288C15.1963 73.8245 15.8172 74.0975 16.4835 74.0975H55.976C56.6423 74.0975 57.263 73.8245 57.7237 73.3288C58.1985 72.818 58.4413 72.1207 58.3898 71.4156L56.4199 44.4669Z" fill="#D7B687"/>
<path d="M51.8633 27.7229C52.0216 28.5425 52.4139 30.0155 53.3414 31.4674C55.1703 34.3297 58.1388 35.781 62.1643 35.781C66.1899 35.781 69.1585 34.3297 70.9873 31.4674C71.9148 30.0155 72.307 28.5425 72.4654 27.7229H51.8633Z" fill="#D7B687"/>
<path d="M19.1241 31.4674C20.0517 30.0155 20.4439 28.5425 20.6023 27.7229H0C0.158216 28.5422 0.550416 30.0154 1.47815 31.4674C3.30705 34.3297 6.27551 35.781 10.3011 35.781C14.3266 35.781 17.2952 34.3297 19.1241 31.4674Z" fill="#D7B687"/>
<path d="M33.0795 31.5503H39.3955C40.0853 31.5503 40.753 31.6742 41.3763 31.9018L39.9326 20.8098H32.5426L31.0989 31.9018C31.722 31.6742 32.3897 31.5503 33.0795 31.5503Z" fill="#D7B687"/>
<path d="M39.3658 16.4971H33.0984L32.6953 19.5952H39.769L39.3658 16.4971Z" fill="#D7B687"/>
<path d="M18.7972 8.77636C20.4301 7.7598 21.9725 6.79957 23.9871 6.58138C26.9829 6.25675 30.1103 7.49757 31.9762 8.43442C31.6993 7.56393 31.5446 6.58897 31.5446 5.55176C31.5446 4.67959 31.6543 3.85162 31.8537 3.09242C30.2817 2.61808 25.7168 1.40944 22.1595 2.15512C19.9101 2.62673 18.1723 4.05872 16.492 5.44365C14.9009 6.75478 13.2557 8.1107 11.1874 8.64396C8.44605 9.35062 4.88558 9.32405 2.72461 9.21791C4.20428 10.2105 6.86617 11.4902 10.7543 11.4902C14.4379 11.4902 16.654 10.1106 18.7972 8.77636Z" fill="#D7B687"/>
<path d="M7.02634 13.1128L3.41713 23.6685C3.30857 23.9859 3.47787 24.3312 3.79536 24.4397C3.8605 24.462 3.9267 24.4725 3.99184 24.4725C4.24435 24.4725 4.48031 24.3138 4.56655 24.0615L8.17576 13.5058C8.28433 13.1884 8.11503 12.8432 7.79753 12.7346C7.48004 12.6257 7.13491 12.7956 7.02634 13.1128Z" fill="#D7B687"/>
<path d="M12.8105 12.7346C12.493 12.843 12.3237 13.1883 12.4323 13.5058L16.0413 24.0615C16.1276 24.3139 16.3635 24.4725 16.616 24.4725C16.6812 24.4725 16.7474 24.4621 16.8125 24.4397C17.13 24.3313 17.2993 23.986 17.1907 23.6685L13.5817 13.1127C13.4731 12.7955 13.1281 12.6257 12.8105 12.7346Z" fill="#D7B687"/>
<path d="M64.5493 12.3794C64.2318 12.4878 64.0625 12.8331 64.171 13.1506L68.2563 25.0991C68.3425 25.3515 68.5785 25.5101 68.831 25.5101C68.8961 25.5101 68.9623 25.4996 69.0275 25.4773C69.345 25.3689 69.5143 25.0236 69.4057 24.7061L65.3205 12.7576C65.2119 12.4403 64.8671 12.2705 64.5493 12.3794Z" fill="#D7B687"/>
<path d="M59.0105 12.7576L55.2802 23.6682C55.1716 23.9855 55.3409 24.3308 55.6584 24.4394C55.7235 24.4617 55.7897 24.4722 55.8549 24.4722C56.1074 24.4722 56.3433 24.3135 56.4296 24.0611L60.16 13.1506C60.2685 12.8332 60.0992 12.488 59.7817 12.3794C59.4642 12.2705 59.1191 12.4403 59.0105 12.7576Z" fill="#D7B687"/>
</svg>
