<svg width="525" height="207" viewBox="0 0 525 207" fill="none" xmlns="http://www.w3.org/2000/svg">
<rect x="15" y="198.84" width="495" height="2.16" fill="url(#paint0_linear_968_17549)"/>
<rect x="15" y="7" width="495" height="2.16" fill="url(#paint1_linear_968_17549)"/>
<g filter="url(#filter0_b_968_17549)">
<mask id="path-3-inside-1_968_17549" fill="white">
<path fill-rule="evenodd" clip-rule="evenodd" d="M260.92 0.52002L274.273 5.74385L269.173 14.1962H262.751L274.273 18.7039L273.515 19.96H501.36C506.132 19.96 510 23.8283 510 28.6V89.6647L524.327 100.074L518.443 118.186H510V179.4C510 184.172 506.132 188.04 501.36 188.04H272.211L269.173 193.076H262.751L274.273 197.584L269.173 206.036H252.668L247.567 197.584L259.09 193.076H252.668L249.629 188.04H23.6402C18.8685 188.04 15.0002 184.172 15.0002 179.4V118.186H6.55809L0.673096 100.074L15.0002 89.6648V28.6C15.0002 23.8283 18.8685 19.96 23.6402 19.96H248.325L247.567 18.7039L259.09 14.1962H252.668L247.567 5.74385L260.92 0.52002Z"/>
</mask>
<path fill-rule="evenodd" clip-rule="evenodd" d="M260.92 0.52002L274.273 5.74385L269.173 14.1962H262.751L274.273 18.7039L273.515 19.96H501.36C506.132 19.96 510 23.8283 510 28.6V89.6647L524.327 100.074L518.443 118.186H510V179.4C510 184.172 506.132 188.04 501.36 188.04H272.211L269.173 193.076H262.751L274.273 197.584L269.173 206.036H252.668L247.567 197.584L259.09 193.076H252.668L249.629 188.04H23.6402C18.8685 188.04 15.0002 184.172 15.0002 179.4V118.186H6.55809L0.673096 100.074L15.0002 89.6648V28.6C15.0002 23.8283 18.8685 19.96 23.6402 19.96H248.325L247.567 18.7039L259.09 14.1962H252.668L247.567 5.74385L260.92 0.52002Z" fill="#B3B3B3" fill-opacity="0.36"/>
<path d="M274.273 5.74385L276.122 6.85981L277.446 4.66587L275.06 3.73231L274.273 5.74385ZM260.92 0.52002L261.707 -1.49153L260.92 -1.79939L260.133 -1.49153L260.92 0.52002ZM269.173 14.1962V16.3562H270.392L271.022 15.3121L269.173 14.1962ZM262.751 14.1962V12.0362L261.964 16.2077L262.751 14.1962ZM274.273 18.7039L276.122 19.8198L277.446 17.6259L275.06 16.6923L274.273 18.7039ZM273.515 19.96L271.666 18.8441L269.689 22.12H273.515V19.96ZM510 89.6647H507.84V90.7653L508.731 91.4122L510 89.6647ZM524.327 100.074L526.382 100.742L526.867 99.249L525.597 98.3266L524.327 100.074ZM518.443 118.186V120.346H520.012L520.497 118.854L518.443 118.186ZM510 118.186V116.026H507.84V118.186H510ZM272.211 188.04V185.88H270.992L270.362 186.924L272.211 188.04ZM269.173 193.076V195.236H270.392L271.022 194.192L269.173 193.076ZM262.751 193.076V190.916L261.964 195.087L262.751 193.076ZM274.273 197.584L276.122 198.7L277.446 196.506L275.06 195.572L274.273 197.584ZM269.173 206.036V208.196H270.392L271.022 207.152L269.173 206.036ZM252.668 206.036L250.818 207.152L251.448 208.196H252.668V206.036ZM247.567 197.584L246.78 195.572L244.394 196.506L245.718 198.7L247.567 197.584ZM259.09 193.076L259.876 195.087L259.09 190.916V193.076ZM252.668 193.076L250.818 194.192L251.448 195.236H252.668V193.076ZM249.629 188.04L251.478 186.924L250.848 185.88H249.629V188.04ZM15.0002 118.186H17.1602V116.026H15.0002V118.186ZM6.55809 118.186L4.50381 118.854L4.98876 120.346H6.55809V118.186ZM0.673096 100.074L-0.59652 98.3266L-1.86614 99.249L-1.38119 100.742L0.673096 100.074ZM15.0002 89.6648L16.2698 91.4123L17.1602 90.7654V89.6648H15.0002ZM248.325 19.96V22.12H252.151L250.175 18.8441L248.325 19.96ZM247.567 18.7039L246.78 16.6923L244.394 17.6259L245.718 19.8198L247.567 18.7039ZM259.09 14.1962L259.876 16.2077L259.09 12.0362V14.1962ZM252.668 14.1962L250.818 15.3121L251.448 16.3562H252.668V14.1962ZM247.567 5.74385L246.78 3.73231L244.394 4.66587L245.718 6.85981L247.567 5.74385ZM275.06 3.73231L261.707 -1.49153L260.133 2.53156L273.486 7.7554L275.06 3.73231ZM271.022 15.3121L276.122 6.85981L272.424 4.62789L267.323 13.0802L271.022 15.3121ZM262.751 16.3562H269.173V12.0362H262.751V16.3562ZM275.06 16.6923L263.538 12.1846L261.964 16.2077L273.486 20.7154L275.06 16.6923ZM275.364 21.076L276.122 19.8198L272.424 17.5879L271.666 18.8441L275.364 21.076ZM501.36 17.8H273.515V22.12H501.36V17.8ZM512.16 28.6C512.16 22.6353 507.325 17.8 501.36 17.8V22.12C504.939 22.12 507.84 25.0212 507.84 28.6H512.16ZM512.16 89.6647V28.6H507.84V89.6647H512.16ZM525.597 98.3266L511.27 87.9172L508.731 91.4122L523.058 101.822L525.597 98.3266ZM520.497 118.854L526.382 100.742L522.273 99.4066L516.388 117.519L520.497 118.854ZM510 120.346H518.443V116.026H510V120.346ZM512.16 179.4V118.186H507.84V179.4H512.16ZM501.36 190.2C507.325 190.2 512.16 185.365 512.16 179.4H507.84C507.84 182.979 504.939 185.88 501.36 185.88V190.2ZM272.211 190.2H501.36V185.88H272.211V190.2ZM271.022 194.192L274.061 189.156L270.362 186.924L267.323 191.96L271.022 194.192ZM262.751 195.236H269.173V190.916H262.751V195.236ZM275.06 195.572L263.538 191.064L261.964 195.087L273.486 199.595L275.06 195.572ZM271.022 207.152L276.122 198.7L272.424 196.468L267.323 204.92L271.022 207.152ZM252.668 208.196H269.173V203.876H252.668V208.196ZM245.718 198.7L250.818 207.152L254.517 204.92L249.417 196.468L245.718 198.7ZM258.303 191.064L246.78 195.572L248.354 199.595L259.876 195.087L258.303 191.064ZM252.668 195.236H259.09V190.916H252.668V195.236ZM247.779 189.156L250.818 194.192L254.517 191.96L251.478 186.924L247.779 189.156ZM23.6402 190.2H249.629V185.88H23.6402V190.2ZM12.8402 179.4C12.8402 185.365 17.6755 190.2 23.6402 190.2V185.88C20.0614 185.88 17.1602 182.979 17.1602 179.4H12.8402ZM12.8402 118.186V179.4H17.1602V118.186H12.8402ZM15.0002 116.026H6.55809V120.346H15.0002V116.026ZM8.61237 117.519L2.72738 99.4066L-1.38119 100.742L4.50381 118.854L8.61237 117.519ZM1.94271 101.822L16.2698 91.4123L13.7306 87.9174L-0.59652 98.3266L1.94271 101.822ZM12.8402 28.6V89.6648H17.1602V28.6H12.8402ZM23.6402 17.8C17.6755 17.8 12.8402 22.6353 12.8402 28.6H17.1602C17.1602 25.0212 20.0614 22.12 23.6402 22.12V17.8ZM248.325 17.8H23.6402V22.12H248.325V17.8ZM245.718 19.8198L246.476 21.076L250.175 18.8441L249.417 17.5879L245.718 19.8198ZM258.303 12.1846L246.78 16.6923L248.354 20.7154L259.876 16.2077L258.303 12.1846ZM252.668 16.3562H259.09V12.0362H252.668V16.3562ZM245.718 6.85981L250.818 15.3121L254.517 13.0802L249.417 4.62789L245.718 6.85981ZM260.133 -1.49153L246.78 3.73231L248.354 7.7554L261.707 2.53157L260.133 -1.49153Z" fill="#DCC196" mask="url(#path-3-inside-1_968_17549)"/>
</g>
<path d="M1.94238 100.487L16.0799 90.2151L30.2174 100.487L24.8173 117.106H7.34243L1.94238 100.487Z" stroke="#DCC196" stroke-width="2.16"/>
<path d="M494.783 100.487L508.92 90.2151L523.058 100.487L517.658 117.106H500.183L494.783 100.487Z" stroke="#DCC196" stroke-width="2.16"/>
<path d="M508.92 97.52L516.11 102.744L513.364 111.196H504.476L501.73 102.744L508.92 97.52Z" fill="#DCC196"/>
<path d="M16.08 97.52L23.27 102.744L20.5237 111.196H11.6364L8.89003 102.744L16.08 97.52Z" fill="#DCC196"/>
<path d="M16.0799 84.5601L21.2156 88.2914L19.254 94.3288H12.9059L10.9442 88.2914L16.0799 84.5601Z" fill="#DCC196"/>
<path d="M16.0799 114.8L21.2156 118.531L19.254 124.569H12.9059L10.9442 118.531L16.0799 114.8Z" fill="#DCC196"/>
<path d="M508.92 114.8L514.056 118.531L512.094 124.569H505.746L503.785 118.531L508.92 114.8Z" fill="#DCC196"/>
<path d="M508.92 84.5601L514.056 88.2914L512.094 94.3288H505.746L503.785 88.2914L508.92 84.5601Z" fill="#DCC196"/>
<defs>
<filter id="filter0_b_968_17549" x="-215.327" y="-215.48" width="955.654" height="637.516" filterUnits="userSpaceOnUse" color-interpolation-filters="sRGB">
<feFlood flood-opacity="0" result="BackgroundImageFix"/>
<feGaussianBlur in="BackgroundImageFix" stdDeviation="108"/>
<feComposite in2="SourceAlpha" operator="in" result="effect1_backgroundBlur_968_17549"/>
<feBlend mode="normal" in="SourceGraphic" in2="effect1_backgroundBlur_968_17549" result="shape"/>
</filter>
<linearGradient id="paint0_linear_968_17549" x1="15" y1="201" x2="510" y2="201" gradientUnits="userSpaceOnUse">
<stop stop-color="#DBBA86"/>
<stop offset="0.5" stop-color="#A75520"/>
<stop offset="1" stop-color="#3D1504"/>
</linearGradient>
<linearGradient id="paint1_linear_968_17549" x1="15" y1="9.16013" x2="510" y2="9.16013" gradientUnits="userSpaceOnUse">
<stop stop-color="#DBBA86"/>
<stop offset="0.5" stop-color="#A75520"/>
<stop offset="1" stop-color="#3D1504"/>
</linearGradient>
</defs>
</svg>
